<?xml version="1.0" encoding="UTF-8"?>
<!DOCTYPE svg PUBLIC "-//W3C//DTD SVG 1.1//EN" "http://www.w3.org/Graphics/SVG/1.1/DTD/svg11.dtd">
<svg xmlns="http://www.w3.org/2000/svg" version="1.1" width="1101px" height="623px" style="shape-rendering:geometricPrecision; text-rendering:geometricPrecision; image-rendering:optimizeQuality; fill-rule:evenodd; clip-rule:evenodd" xmlns:xlink="http://www.w3.org/1999/xlink">
<g><path style="opacity:1" fill="#0d0d0d" d="M 404.5,0.5 C 430.574,-0.184319 456.574,0.815681 482.5,3.5C 514.958,1.42989 547.291,2.59656 579.5,7C 601.788,10.6424 621.788,19.3091 639.5,33C 668.503,43.314 685.836,63.6473 691.5,94C 691.491,95.4038 690.991,96.5704 690,97.5C 689.667,108.833 689.333,120.167 689,131.5C 687.621,138.065 686.121,144.565 684.5,151C 702.842,147.166 719.842,150.499 735.5,161C 745.706,170.538 755.206,180.705 764,191.5C 767,196.167 770,200.833 773,205.5C 779.243,211.953 785.243,218.62 791,225.5C 797.652,237.468 804.319,249.468 811,261.5C 815.323,271.16 818.823,281.16 821.5,291.5C 825.327,286.833 828.994,281.999 832.5,277C 838.465,274.226 841.299,276.059 841,282.5C 836.203,289.628 831.037,296.461 825.5,303C 826.821,307.441 827.821,311.941 828.5,316.5C 834.381,314.226 840.048,311.393 845.5,308C 844.207,303.963 843.374,299.796 843,295.5C 843.063,283.724 842.063,272.058 840,260.5C 839.333,245.833 839.333,231.167 840,216.5C 841.667,213.833 843.333,211.167 845,208.5C 850.333,204.5 855,199.833 859,194.5C 861.909,185.699 860.242,178.032 854,171.5C 846.838,161.97 844.504,151.304 847,139.5C 852.628,124.276 859.961,109.943 869,96.5C 870.227,94.2739 872.061,92.7739 874.5,92C 917.791,92.1131 961.124,92.7798 1004.5,94C 1021.75,95.4615 1038.09,100.128 1053.5,108C 1057.47,111.205 1059.97,115.371 1061,120.5C 1061.67,134.833 1061.67,149.167 1061,163.5C 1058.85,179.775 1057.85,196.108 1058,212.5C 1059.92,219.016 1062.92,225.016 1067,230.5C 1067.98,236.705 1067.32,242.705 1065,248.5C 1058.75,253.401 1054.08,259.401 1051,266.5C 1051.71,296.418 1054.71,326.085 1060,355.5C 1060.36,378.141 1060.52,400.641 1060.5,423C 1061.76,439.411 1054.1,448.077 1037.5,449C 1020.84,451.095 1004.17,453.095 987.5,455C 968.446,455.087 949.446,456.087 930.5,458C 906.47,458.599 882.47,457.932 858.5,456C 857.421,455.044 856.255,454.211 855,453.5C 852,447.5 849,441.5 846,435.5C 845.333,426.833 845.333,418.167 846,409.5C 853.477,379.399 853.31,349.399 845.5,319.5C 839.793,322.239 834.126,324.906 828.5,327.5C 828.666,337.839 828.5,348.172 828,358.5C 825.318,367.297 823.651,376.297 823,385.5C 822.124,389.341 820.791,393.007 819,396.5C 815.535,398.963 812.369,401.796 809.5,405C 789.435,416.239 769.101,426.906 748.5,437C 746.167,437.333 743.833,437.667 741.5,438C 739.261,440.614 736.595,441.114 733.5,439.5C 707.666,448.778 681.666,457.445 655.5,465.5C 654.165,469.87 654.998,473.87 658,477.5C 659.648,478.717 661.481,479.55 663.5,480C 682.833,480.333 702.167,480.667 721.5,481C 754.199,501.088 766.699,530.255 759,568.5C 756.772,570.968 753.938,572.135 750.5,572C 738.741,582.379 725.074,588.712 709.5,591C 697.167,591.333 684.833,591.667 672.5,592C 669.417,593.139 666.417,594.472 663.5,596C 652.733,596.928 642.067,596.262 631.5,594C 618.167,593.667 604.833,593.333 591.5,593C 590.789,590.388 589.122,588.888 586.5,588.5C 578.412,587.399 570.412,585.899 562.5,584C 557.044,580.213 551.877,576.046 547,571.5C 540.821,557.448 538.487,542.781 540,527.5C 543.719,519.01 546.219,510.177 547.5,501C 546.534,499.266 545.034,498.432 543,498.5C 529.494,503.114 515.661,506.28 501.5,508C 484.506,508.827 467.506,509.494 450.5,510C 440.477,513.54 430.144,515.373 419.5,515.5C 396.019,513.798 372.685,510.965 349.5,507C 338.5,506.333 327.5,506.333 316.5,507C 317.833,512.333 321.167,515.667 326.5,517C 339.229,517.828 351.895,519.161 364.5,521C 370.553,522.774 375.72,525.941 380,530.5C 382.333,535.167 384.667,539.833 387,544.5C 388.975,556.828 388.975,569.161 387,581.5C 384.742,587.645 381.742,593.311 378,598.5C 372.281,600.751 366.781,603.585 361.5,607C 347.723,610.362 334.057,614.362 320.5,619C 299.074,620.172 277.74,619.339 256.5,616.5C 232.277,620.78 218.111,610.78 214,586.5C 213.135,576.448 213.469,566.448 215,556.5C 219.475,544.073 224.142,531.74 229,519.5C 229.936,515.886 230.436,512.22 230.5,508.5C 220.321,506.718 210.321,504.218 200.5,501C 176.904,498.082 153.904,492.748 131.5,485C 117.745,477.595 103.745,470.595 89.5,464C 74.5081,453.502 59.1748,443.502 43.5,434C 30.3922,423.287 20.5589,410.12 14,394.5C 13.6667,389.833 13.3333,385.167 13,380.5C 7.63526,368.042 4.30193,355.042 3,341.5C 3.04489,333.627 2.87822,325.794 2.5,318C 2.93986,312.162 3.43986,306.328 4,300.5C 9.71795,284.515 14.0513,268.182 17,251.5C 20.7605,244.937 21.9272,237.937 20.5,230.5C 21.2268,221.035 23.7268,212.035 28,203.5C 29.8535,199.779 32.1869,196.446 35,193.5C 36.9739,184.552 39.8072,175.886 43.5,167.5C 62.2561,138.914 85.2561,114.414 112.5,94C 123.683,88.4607 133.349,81.1274 141.5,72C 157.159,60.3454 173.826,50.3454 191.5,42C 214.547,35.4773 237.214,27.8106 259.5,19C 271.552,17.698 283.552,16.0313 295.5,14C 310.735,9.85788 326.068,6.02455 341.5,2.5C 345.302,3.09514 349.136,3.42847 353,3.5C 370.348,2.92559 387.515,1.92559 404.5,0.5 Z"/></g>
<g><path style="opacity:1" fill="#fdc80e" d="M 729.5,184.5 C 730.585,186.587 732.251,187.92 734.5,188.5C 745.05,200.594 754.883,213.261 764,226.5C 779.01,253.519 792.676,281.186 805,309.5C 807.951,325.091 808.284,340.758 806,356.5C 802.768,367.059 797.101,376.059 789,383.5C 782.283,389.777 774.783,394.944 766.5,399C 749.616,406.609 732.616,413.942 715.5,421C 664.797,437.757 613.797,453.424 562.5,468C 547.108,471.078 531.774,474.412 516.5,478C 489.737,483.205 462.737,485.872 435.5,486C 378.824,486.88 322.157,486.546 265.5,485C 221.172,479.447 177.505,470.78 134.5,459C 89.3057,441.471 56.8057,410.637 37,366.5C 34.3816,360.028 32.3816,353.362 31,346.5C 30.0712,322.135 30.4045,297.801 32,273.5C 33.2064,268.469 34.5397,263.469 36,258.5C 46.9913,231.859 56.9913,204.859 66,177.5C 80.1249,155.781 96.2916,135.614 114.5,117C 118.949,114.122 122.949,110.789 126.5,107C 145.491,93.8359 164.825,81.1692 184.5,69C 201.076,60.2132 218.076,52.2132 235.5,45C 276.683,31.5374 318.683,21.5374 361.5,15C 415.5,14.3333 469.5,14.3333 523.5,15C 548.407,18.3813 573.074,23.048 597.5,29C 624.737,36.1955 648.237,49.6955 668,69.5C 671.394,73.8981 674.394,78.5648 677,83.5C 677.667,88.5 677.667,93.5 677,98.5C 675.785,103.051 675.119,107.718 675,112.5C 671.07,122.218 668.07,132.218 666,142.5C 663,148.167 660,153.833 657,159.5C 655.86,162.528 656.694,164.695 659.5,166C 671.833,166.333 684.167,166.667 696.5,167C 704.271,171.22 712.271,174.887 720.5,178C 723.529,180.176 726.529,182.343 729.5,184.5 Z"/></g>
<g><path style="opacity:1" fill="#c1c0c0" d="M 877.5,100.5 C 911.835,100.333 946.168,100.5 980.5,101C 991.188,101.35 1001.85,102.017 1012.5,103C 1025.72,105.284 1038.05,109.784 1049.5,116.5C 1050.24,117.908 1051.08,119.241 1052,120.5C 1053.09,127.773 1053.59,135.106 1053.5,142.5C 1052.56,159.837 1051.39,177.171 1050,194.5C 1048.9,203.989 1049.56,213.323 1052,222.5C 1054.32,227.178 1056.82,231.678 1059.5,236C 1058,242.841 1054.17,248.008 1048,251.5C 1046.14,254.746 1044.47,258.079 1043,261.5C 1042.63,277.534 1043.3,293.534 1045,309.5C 1046.58,326.305 1048.91,342.972 1052,359.5C 1052.3,380.694 1052.47,401.861 1052.5,423C 1053.49,428.52 1051.82,433.02 1047.5,436.5C 1043.35,438.574 1039.02,440.074 1034.5,441C 1017.51,443.132 1000.51,445.132 983.5,447C 959.952,447.289 936.452,448.456 913,450.5C 895.913,449.987 878.913,448.987 862,447.5C 859.368,442.186 856.701,436.853 854,431.5C 853.333,425.167 853.333,418.833 854,412.5C 861.451,380.107 861.284,347.774 853.5,315.5C 856.334,313.559 857.168,310.893 856,307.5C 854.667,306.833 853.667,305.833 853,304.5C 850.99,292.261 849.99,279.928 850,267.5C 847.516,251.937 846.849,236.27 848,220.5C 851.321,215.514 855.321,211.18 860,207.5C 863.095,203.411 865.761,199.077 868,194.5C 868.774,187.776 868.441,181.11 867,174.5C 862.763,168.368 858.763,162.035 855,155.5C 854.333,151.5 854.333,147.5 855,143.5C 860.291,127.963 867.791,113.629 877.5,100.5 Z"/></g>
<g><path style="opacity:1" fill="#ed1f25" d="M 941.5,107.5 C 943.582,107.472 945.416,108.139 947,109.5C 948.069,112.208 949.236,114.875 950.5,117.5C 956.357,118.611 962.191,119.611 968,120.5C 968.684,121.784 968.517,122.951 967.5,124C 963.563,125.644 959.73,127.477 956,129.5C 956.387,132.681 957.22,135.848 958.5,139C 957.941,141.188 956.607,141.854 954.5,141C 950.833,138.833 947.167,136.667 943.5,134.5C 939.842,136.579 936.008,138.246 932,139.5C 930.347,139.18 929.347,138.18 929,136.5C 928.915,133.639 929.749,130.972 931.5,128.5C 919.791,119.137 921.457,115.304 936.5,117C 938.307,113.885 939.973,110.719 941.5,107.5 Z"/></g>
<g><path style="opacity:1" fill="#c2c3c2" d="M 942.5,115.5 C 944.337,115.639 944.67,116.306 943.5,117.5C 942.702,117.043 942.369,116.376 942.5,115.5 Z"/></g>
<g><path style="opacity:1" fill="#c2c3c2" d="M 939.5,122.5 C 943.585,121.659 946.585,122.992 948.5,126.5C 944.977,129.131 941.644,128.798 938.5,125.5C 939.127,124.583 939.461,123.583 939.5,122.5 Z"/></g>
<g><path style="opacity:1" fill="#c2c3c2" d="M 935.5,130.5 C 937.337,130.639 937.67,131.306 936.5,132.5C 935.702,132.043 935.369,131.376 935.5,130.5 Z"/></g>
<g><path style="opacity:1" fill="#230310" d="M 922.5,153.5 C 923.404,154.209 923.737,155.209 923.5,156.5C 926.598,156.413 926.932,156.913 924.5,158C 926.956,160.159 926.29,160.992 922.5,160.5C 922.5,158.167 922.5,155.833 922.5,153.5 Z"/></g>
<g><path style="opacity:1" fill="#230310" d="M 943.5,153.5 C 944.404,154.209 944.737,155.209 944.5,156.5C 947.598,156.413 947.932,156.913 945.5,158C 947.956,160.159 947.29,160.992 943.5,160.5C 943.5,158.167 943.5,155.833 943.5,153.5 Z"/></g>
<g><path style="opacity:1" fill="#230310" d="M 1008.5,153.5 C 1009.4,154.209 1009.74,155.209 1009.5,156.5C 1012.6,156.413 1012.93,156.913 1010.5,158C 1012.96,160.159 1012.29,160.992 1008.5,160.5C 1008.5,158.167 1008.5,155.833 1008.5,153.5 Z"/></g>
<g><path style="opacity:1" fill="#211419" d="M 913.5,156.5 C 916.718,156.651 917.051,157.484 914.5,159C 916.932,160.087 916.598,160.587 913.5,160.5C 913.5,159.167 913.5,157.833 913.5,156.5 Z"/></g>
<g><path style="opacity:1" fill="#211419" d="M 932.5,156.5 C 935.718,156.651 936.051,157.484 933.5,159C 935.932,160.087 935.598,160.587 932.5,160.5C 932.5,159.167 932.5,157.833 932.5,156.5 Z"/></g>
<g><path style="opacity:1" fill="#211419" d="M 985.5,156.5 C 988.718,156.651 989.051,157.484 986.5,159C 988.932,160.087 988.598,160.587 985.5,160.5C 985.5,159.167 985.5,157.833 985.5,156.5 Z"/></g>
<g><path style="opacity:1" fill="#211419" d="M 993.5,156.5 C 996.718,156.651 997.051,157.484 994.5,159C 996.932,160.087 996.598,160.587 993.5,160.5C 993.5,159.167 993.5,157.833 993.5,156.5 Z"/></g>
<g><path style="opacity:1" fill="#19111f" d="M 1003.5,157.5 C 1004.39,156.224 1005.39,156.224 1006.5,157.5C 1005.36,158.425 1005.36,159.259 1006.5,160C 1005.5,160.667 1004.5,160.667 1003.5,160C 1004.77,159.023 1004.77,158.189 1003.5,157.5 Z"/></g>
<g><path style="opacity:1" fill="#4a312e" d="M 874.5,154.5 C 876.39,155.18 878.39,155.347 880.5,155C 878.906,156.8 877.239,158.633 875.5,160.5C 874.534,158.604 874.201,156.604 874.5,154.5 Z"/></g>
<g><path style="opacity:1" fill="#5a484d" d="M 881.5,156.5 C 884.5,156.167 885.833,157.5 885.5,160.5C 884.167,160.5 882.833,160.5 881.5,160.5C 881.5,159.167 881.5,157.833 881.5,156.5 Z"/></g>
<g><path style="opacity:1" fill="#5a484d" d="M 890.5,156.5 C 893.5,156.167 894.833,157.5 894.5,160.5C 893.167,160.5 891.833,160.5 890.5,160.5C 890.5,159.167 890.5,157.833 890.5,156.5 Z"/></g>
<g><path style="opacity:1" fill="#5a484d" d="M 900.5,156.5 C 903.5,156.167 904.833,157.5 904.5,160.5C 903.167,160.5 901.833,160.5 900.5,160.5C 900.5,159.167 900.5,157.833 900.5,156.5 Z"/></g>
<g><path style="opacity:1" fill="#1a1011" d="M 905.5,157.5 C 907.718,157.422 910.052,157.256 912.5,157C 911,158.167 909.5,159.333 908,160.5C 907.623,159.058 906.79,158.058 905.5,157.5 Z"/></g>
<g><path style="opacity:1" fill="#25020e" d="M 949.5,156.5 C 950.249,157.531 950.915,158.698 951.5,160C 951.167,160.167 950.833,160.333 950.5,160.5C 949.571,159.311 949.238,157.978 949.5,156.5 Z"/></g>
<g><path style="opacity:1" fill="#1a1011" d="M 955.5,157.5 C 957.718,157.422 960.052,157.256 962.5,157C 961,158.167 959.5,159.333 958,160.5C 957.623,159.058 956.79,158.058 955.5,157.5 Z"/></g>
<g><path style="opacity:1" fill="#391e20" d="M 967.5,156.5 C 970.5,156.167 971.833,157.5 971.5,160.5C 970.325,160.281 969.325,160.614 968.5,161.5C 969.506,162.396 969.506,163.062 968.5,163.5C 967.526,161.257 967.192,158.924 967.5,156.5 Z"/></g>
<g><path style="opacity:1" fill="#280605" d="M 990.5,153.5 C 992.767,155.633 992.934,157.966 991,160.5C 989.887,158.408 989.721,156.075 990.5,153.5 Z"/></g>
<g><path style="opacity:1" fill="#16061f" d="M 998.5,156.5 C 1001.8,156.329 1002.13,156.995 999.5,158.5C 1002.13,160.005 1001.8,160.671 998.5,160.5C 998.5,159.167 998.5,157.833 998.5,156.5 Z"/></g>
<g><path style="opacity:1" fill="#3b3146" d="M 896.5,156.5 C 899.742,156.467 900.075,157.8 897.5,160.5C 896.571,159.311 896.238,157.978 896.5,156.5 Z"/></g>
<g><path style="opacity:1" fill="#3b3146" d="M 928.5,156.5 C 931.742,156.467 932.075,157.8 929.5,160.5C 928.571,159.311 928.238,157.978 928.5,156.5 Z"/></g>
<g><path style="opacity:1" fill="#1b1117" d="M 939.5,153.5 C 940.817,155.287 940.484,156.954 938.5,158.5C 942.374,160.002 942.041,160.669 937.5,160.5C 937.884,158.071 938.551,155.737 939.5,153.5 Z"/></g>
<g><path style="opacity:1" fill="#262230" d="M 973.5,156.5 C 974.833,156.5 976.167,156.5 977.5,156.5C 977.5,157.833 977.5,159.167 977.5,160.5C 976.167,160.5 974.833,160.5 973.5,160.5C 973.5,159.167 973.5,157.833 973.5,156.5 Z"/></g>
<g><path style="opacity:1" fill="#1b1117" d="M 981.5,153.5 C 982.817,155.287 982.484,156.954 980.5,158.5C 984.374,160.002 984.041,160.669 979.5,160.5C 979.884,158.071 980.551,155.737 981.5,153.5 Z"/></g>
<g><path style="opacity:1" fill="#262230" d="M 1014.5,156.5 C 1015.83,156.5 1017.17,156.5 1018.5,156.5C 1018.5,157.833 1018.5,159.167 1018.5,160.5C 1017.17,160.5 1015.83,160.5 1014.5,160.5C 1014.5,159.167 1014.5,157.833 1014.5,156.5 Z"/></g>
<g><path style="opacity:1" fill="#29242b" d="M 988.5,170.5 C 989.283,172.076 990.45,173.409 992,174.5C 992.483,175.448 992.649,176.448 992.5,177.5C 991.167,177.5 989.833,177.5 988.5,177.5C 988.5,175.167 988.5,172.833 988.5,170.5 Z"/></g>
<g><path style="opacity:1" fill="#230310" d="M 954.5,170.5 C 955.404,171.209 955.737,172.209 955.5,173.5C 958.598,173.413 958.932,173.913 956.5,175C 958.956,177.159 958.29,177.992 954.5,177.5C 954.5,175.167 954.5,172.833 954.5,170.5 Z"/></g>
<g><path style="opacity:1" fill="#230310" d="M 975.5,170.5 C 976.404,171.209 976.737,172.209 976.5,173.5C 979.598,173.413 979.932,173.913 977.5,175C 979.956,177.159 979.29,177.992 975.5,177.5C 975.5,175.167 975.5,172.833 975.5,170.5 Z"/></g>
<g><path style="opacity:1" fill="#2a1425" d="M 885.5,173.5 C 888.598,173.413 888.932,173.913 886.5,175C 889.051,176.516 888.718,177.349 885.5,177.5C 885.5,176.167 885.5,174.833 885.5,173.5 Z"/></g>
<g><path style="opacity:1" fill="#19111f" d="M 889.5,174.5 C 890.386,173.224 891.386,173.224 892.5,174.5C 891.359,175.425 891.359,176.259 892.5,177C 891.5,177.667 890.5,177.667 889.5,177C 890.774,176.023 890.774,175.189 889.5,174.5 Z"/></g>
<g><path style="opacity:1" fill="#1b0c18" d="M 894.5,173.5 C 897.718,173.651 898.051,174.484 895.5,176C 897.932,177.087 897.598,177.587 894.5,177.5C 894.5,176.167 894.5,174.833 894.5,173.5 Z"/></g>
<g><path style="opacity:1" fill="#211419" d="M 945.5,173.5 C 948.718,173.651 949.051,174.484 946.5,176C 948.932,177.087 948.598,177.587 945.5,177.5C 945.5,176.167 945.5,174.833 945.5,173.5 Z"/></g>
<g><path style="opacity:1" fill="#211419" d="M 964.5,173.5 C 967.718,173.651 968.051,174.484 965.5,176C 967.932,177.087 967.598,177.587 964.5,177.5C 964.5,176.167 964.5,174.833 964.5,173.5 Z"/></g>
<g><path style="opacity:1" fill="#19101e" d="M 994.5,173.5 C 995.5,173.5 996.5,173.5 997.5,173.5C 997.33,174.822 997.663,175.989 998.5,177C 997.207,177.49 995.873,177.657 994.5,177.5C 994.5,176.167 994.5,174.833 994.5,173.5 Z"/></g>
<g><path style="opacity:1" fill="#19111f" d="M 1009.5,174.5 C 1010.39,173.224 1011.39,173.224 1012.5,174.5C 1011.36,175.425 1011.36,176.259 1012.5,177C 1011.5,177.667 1010.5,177.667 1009.5,177C 1010.77,176.023 1010.77,175.189 1009.5,174.5 Z"/></g>
<g><path style="opacity:1" fill="#4a312e" d="M 906.5,171.5 C 908.39,172.18 910.39,172.347 912.5,172C 910.906,173.8 909.239,175.633 907.5,177.5C 906.534,175.604 906.201,173.604 906.5,171.5 Z"/></g>
<g><path style="opacity:1" fill="#5a484d" d="M 913.5,173.5 C 916.5,173.167 917.833,174.5 917.5,177.5C 916.167,177.5 914.833,177.5 913.5,177.5C 913.5,176.167 913.5,174.833 913.5,173.5 Z"/></g>
<g><path style="opacity:1" fill="#5a484d" d="M 922.5,173.5 C 925.5,173.167 926.833,174.5 926.5,177.5C 925.167,177.5 923.833,177.5 922.5,177.5C 922.5,176.167 922.5,174.833 922.5,173.5 Z"/></g>
<g><path style="opacity:1" fill="#5a484d" d="M 932.5,173.5 C 935.5,173.167 936.833,174.5 936.5,177.5C 935.167,177.5 933.833,177.5 932.5,177.5C 932.5,176.167 932.5,174.833 932.5,173.5 Z"/></g>
<g><path style="opacity:1" fill="#1a1011" d="M 937.5,174.5 C 939.718,174.422 942.052,174.256 944.5,174C 943,175.167 941.5,176.333 940,177.5C 939.623,176.058 938.79,175.058 937.5,174.5 Z"/></g>
<g><path style="opacity:1" fill="#25020e" d="M 981.5,173.5 C 982.249,174.531 982.915,175.698 983.5,177C 983.167,177.167 982.833,177.333 982.5,177.5C 981.571,176.311 981.238,174.978 981.5,173.5 Z"/></g>
<g><path style="opacity:1" fill="#5a484d" d="M 1014.5,173.5 C 1017.5,173.167 1018.83,174.5 1018.5,177.5C 1017.17,177.5 1015.83,177.5 1014.5,177.5C 1014.5,176.167 1014.5,174.833 1014.5,173.5 Z"/></g>
<g><path style="opacity:1" fill="#3b3146" d="M 928.5,173.5 C 931.742,173.467 932.075,174.8 929.5,177.5C 928.571,176.311 928.238,174.978 928.5,173.5 Z"/></g>
<g><path style="opacity:1" fill="#3b3146" d="M 960.5,173.5 C 963.742,173.467 964.075,174.8 961.5,177.5C 960.571,176.311 960.238,174.978 960.5,173.5 Z"/></g>
<g><path style="opacity:1" fill="#3b3146" d="M 999.5,173.5 C 1002.74,173.467 1003.08,174.8 1000.5,177.5C 999.571,176.311 999.238,174.978 999.5,173.5 Z"/></g>
<g><path style="opacity:1" fill="#3a3137" d="M 874.5,173.5 C 877.272,174.235 879.939,174.401 882.5,174C 883.337,175.011 883.67,176.178 883.5,177.5C 880.5,177.5 877.5,177.5 874.5,177.5C 874.5,176.167 874.5,174.833 874.5,173.5 Z"/></g>
<g><path style="opacity:1" fill="#1b1117" d="M 971.5,170.5 C 972.817,172.287 972.484,173.954 970.5,175.5C 974.374,177.002 974.041,177.669 969.5,177.5C 969.884,175.071 970.551,172.737 971.5,170.5 Z"/></g>
<g><path style="opacity:1" fill="#1b1117" d="M 1005.5,170.5 C 1006.82,172.287 1006.48,173.954 1004.5,175.5C 1008.37,177.002 1008.04,177.669 1003.5,177.5C 1003.88,175.071 1004.55,172.737 1005.5,170.5 Z"/></g>
<g><path style="opacity:1" fill="#6c7965" d="M 729.5,184.5 C 731.749,185.08 733.415,186.413 734.5,188.5C 732.251,187.92 730.585,186.587 729.5,184.5 Z"/></g>
<g><path style="opacity:1" fill="#29242b" d="M 883.5,187.5 C 884.283,189.076 885.45,190.409 887,191.5C 887.483,192.448 887.649,193.448 887.5,194.5C 886.167,194.5 884.833,194.5 883.5,194.5C 883.5,192.167 883.5,189.833 883.5,187.5 Z"/></g>
<g><path style="opacity:1" fill="#230310" d="M 976.5,187.5 C 977.404,188.209 977.737,189.209 977.5,190.5C 980.598,190.413 980.932,190.913 978.5,192C 980.956,194.159 980.29,194.992 976.5,194.5C 976.5,192.167 976.5,189.833 976.5,187.5 Z"/></g>
<g><path style="opacity:1" fill="#230310" d="M 997.5,187.5 C 998.404,188.209 998.737,189.209 998.5,190.5C 1001.6,190.413 1001.93,190.913 999.5,192C 1001.96,194.159 1001.29,194.992 997.5,194.5C 997.5,192.167 997.5,189.833 997.5,187.5 Z"/></g>
<g><path style="opacity:1" fill="#230310" d="M 1013.5,187.5 C 1014.4,188.209 1014.74,189.209 1014.5,190.5C 1017.6,190.413 1017.93,190.913 1015.5,192C 1017.96,194.159 1017.29,194.992 1013.5,194.5C 1013.5,192.167 1013.5,189.833 1013.5,187.5 Z"/></g>
<g><path style="opacity:1" fill="#1d111d" d="M 889.5,190.5 C 890.158,191.398 890.824,192.398 891.5,193.5C 892.386,192.675 892.719,191.675 892.5,190.5C 893.5,190.5 894.5,190.5 895.5,190.5C 895.997,192.597 896.33,194.43 896.5,196C 894.385,195.145 892.052,194.645 889.5,194.5C 889.5,193.167 889.5,191.833 889.5,190.5 Z"/></g>
<g><path style="opacity:1" fill="#211419" d="M 916.5,190.5 C 919.718,190.651 920.051,191.484 917.5,193C 919.932,194.087 919.598,194.587 916.5,194.5C 916.5,193.167 916.5,191.833 916.5,190.5 Z"/></g>
<g><path style="opacity:1" fill="#211419" d="M 967.5,190.5 C 970.718,190.651 971.051,191.484 968.5,193C 970.932,194.087 970.598,194.587 967.5,194.5C 967.5,193.167 967.5,191.833 967.5,190.5 Z"/></g>
<g><path style="opacity:1" fill="#211419" d="M 986.5,190.5 C 989.718,190.651 990.051,191.484 987.5,193C 989.932,194.087 989.598,194.587 986.5,194.5C 986.5,193.167 986.5,191.833 986.5,190.5 Z"/></g>
<g><path style="opacity:1" fill="#211419" d="M 1022.5,190.5 C 1025.72,190.651 1026.05,191.484 1023.5,193C 1025.93,194.087 1025.6,194.587 1022.5,194.5C 1022.5,193.167 1022.5,191.833 1022.5,190.5 Z"/></g>
<g><path style="opacity:1" fill="#190100" d="M 1032.5,191.5 C 1033.95,190.387 1035.61,190.22 1037.5,191C 1035.7,192.036 1034.03,192.203 1032.5,191.5 Z"/></g>
<g><path style="opacity:1" fill="#4a312e" d="M 928.5,188.5 C 930.39,189.18 932.39,189.347 934.5,189C 932.906,190.8 931.239,192.633 929.5,194.5C 928.534,192.604 928.201,190.604 928.5,188.5 Z"/></g>
<g><path style="opacity:1" fill="#5a484d" d="M 935.5,190.5 C 938.5,190.167 939.833,191.5 939.5,194.5C 938.167,194.5 936.833,194.5 935.5,194.5C 935.5,193.167 935.5,191.833 935.5,190.5 Z"/></g>
<g><path style="opacity:1" fill="#5a484d" d="M 944.5,190.5 C 947.5,190.167 948.833,191.5 948.5,194.5C 947.167,194.5 945.833,194.5 944.5,194.5C 944.5,193.167 944.5,191.833 944.5,190.5 Z"/></g>
<g><path style="opacity:1" fill="#5a484d" d="M 954.5,190.5 C 957.5,190.167 958.833,191.5 958.5,194.5C 957.167,194.5 955.833,194.5 954.5,194.5C 954.5,193.167 954.5,191.833 954.5,190.5 Z"/></g>
<g><path style="opacity:1" fill="#1a1011" d="M 959.5,191.5 C 961.718,191.422 964.052,191.256 966.5,191C 965,192.167 963.5,193.333 962,194.5C 961.623,193.058 960.79,192.058 959.5,191.5 Z"/></g>
<g><path style="opacity:1" fill="#25020e" d="M 1003.5,190.5 C 1004.25,191.531 1004.92,192.698 1005.5,194C 1005.17,194.167 1004.83,194.333 1004.5,194.5C 1003.57,193.311 1003.24,191.978 1003.5,190.5 Z"/></g>
<g><path style="opacity:1" fill="#25020e" d="M 1019.5,190.5 C 1020.25,191.531 1020.92,192.698 1021.5,194C 1021.17,194.167 1020.83,194.333 1020.5,194.5C 1019.57,193.311 1019.24,191.978 1019.5,190.5 Z"/></g>
<g><path style="opacity:1" fill="#3b3146" d="M 950.5,190.5 C 953.742,190.467 954.075,191.8 951.5,194.5C 950.571,193.311 950.238,191.978 950.5,190.5 Z"/></g>
<g><path style="opacity:1" fill="#3b3146" d="M 982.5,190.5 C 985.742,190.467 986.075,191.8 983.5,194.5C 982.571,193.311 982.238,191.978 982.5,190.5 Z"/></g>
<g><path style="opacity:1" fill="#262230" d="M 877.5,190.5 C 878.833,190.5 880.167,190.5 881.5,190.5C 881.5,191.833 881.5,193.167 881.5,194.5C 880.167,194.5 878.833,194.5 877.5,194.5C 877.5,193.167 877.5,191.833 877.5,190.5 Z"/></g>
<g><path style="opacity:1" fill="#271e24" d="M 901.5,190.5 C 905.167,190.5 908.833,190.5 912.5,190.5C 912.693,194.449 913.193,194.449 914,190.5C 914.309,191.766 914.809,192.933 915.5,194C 910.845,194.499 906.179,194.666 901.5,194.5C 901.5,193.167 901.5,191.833 901.5,190.5 Z"/></g>
<g><path style="opacity:1" fill="#9c7d7e" d="M 902.5,191.5 C 903.978,191.238 905.311,191.571 906.5,192.5C 905.833,192.833 905.167,193.167 904.5,193.5C 903.287,193.253 902.62,192.586 902.5,191.5 Z"/></g>
<g><path style="opacity:1" fill="#1b1117" d="M 993.5,187.5 C 994.817,189.287 994.484,190.954 992.5,192.5C 996.374,194.002 996.041,194.669 991.5,194.5C 991.884,192.071 992.551,189.737 993.5,187.5 Z"/></g>
<g><path style="opacity:1" fill="#1b1117" d="M 1029.5,187.5 C 1030.82,189.287 1030.48,190.954 1028.5,192.5C 1032.37,194.002 1032.04,194.669 1027.5,194.5C 1027.88,192.071 1028.55,189.737 1029.5,187.5 Z"/></g>
<g><path style="opacity:1" fill="#040300" d="M 574.5,201.5 C 584.443,200.846 587.776,205.346 584.5,215C 579.723,216.845 575.223,216.345 571,213.5C 569.593,208.643 570.76,204.643 574.5,201.5 Z"/></g>
<g><path style="opacity:1" fill="#230310" d="M 1010.5,204.5 C 1011.4,205.209 1011.74,206.209 1011.5,207.5C 1014.6,207.413 1014.93,207.913 1012.5,209C 1014.96,211.159 1014.29,211.992 1010.5,211.5C 1010.5,209.167 1010.5,206.833 1010.5,204.5 Z"/></g>
<g><path style="opacity:1" fill="#0e0000" d="M 1006.5,206.5 C 1007.29,206.783 1007.96,207.283 1008.5,208C 1007.89,209.303 1007.55,210.47 1007.5,211.5C 1006.55,209.955 1006.21,208.288 1006.5,206.5 Z"/></g>
<g><path style="opacity:1" fill="#0e0000" d="M 1026.5,206.5 C 1027.29,206.783 1027.96,207.283 1028.5,208C 1027.89,209.303 1027.55,210.47 1027.5,211.5C 1026.55,209.955 1026.21,208.288 1026.5,206.5 Z"/></g>
<g><path style="opacity:1" fill="#030200" d="M 199.5,207.5 C 202.685,207.02 205.519,207.686 208,209.5C 209.451,215.639 208.284,221.139 204.5,226C 193.97,226.841 190.137,222.008 193,211.5C 194.792,209.372 196.958,208.039 199.5,207.5 Z"/></g>
<g><path style="opacity:1" fill="#211419" d="M 877.5,207.5 C 880.718,207.651 881.051,208.484 878.5,210C 880.932,211.087 880.598,211.587 877.5,211.5C 877.5,210.167 877.5,208.833 877.5,207.5 Z"/></g>
<g><path style="opacity:1" fill="#2a1425" d="M 914.5,207.5 C 917.598,207.413 917.932,207.913 915.5,209C 918.051,210.516 917.718,211.349 914.5,211.5C 914.5,210.167 914.5,208.833 914.5,207.5 Z"/></g>
<g><path style="opacity:1" fill="#19111f" d="M 918.5,208.5 C 919.386,207.224 920.386,207.224 921.5,208.5C 920.359,209.425 920.359,210.259 921.5,211C 920.5,211.667 919.5,211.667 918.5,211C 919.774,210.023 919.774,209.189 918.5,208.5 Z"/></g>
<g><path style="opacity:1" fill="#1b0c18" d="M 923.5,207.5 C 926.718,207.651 927.051,208.484 924.5,210C 926.932,211.087 926.598,211.587 923.5,211.5C 923.5,210.167 923.5,208.833 923.5,207.5 Z"/></g>
<g><path style="opacity:1" fill="#361d3b" d="M 935.5,206.5 C 935.897,205.475 936.563,205.308 937.5,206C 939.019,207.351 940.352,208.851 941.5,210.5C 941.167,210.833 940.833,211.167 940.5,211.5C 938.994,209.599 937.327,207.932 935.5,206.5 Z"/></g>
<g><path style="opacity:1" fill="#19101e" d="M 943.5,207.5 C 944.5,207.5 945.5,207.5 946.5,207.5C 946.33,208.822 946.663,209.989 947.5,211C 946.207,211.49 944.873,211.657 943.5,211.5C 943.5,210.167 943.5,208.833 943.5,207.5 Z"/></g>
<g><path style="opacity:1" fill="#1b131b" d="M 948.5,207.5 C 951.993,207.998 955.326,207.998 958.5,207.5C 958.33,208.822 958.663,209.989 959.5,211C 955.848,211.499 952.182,211.665 948.5,211.5C 948.5,210.167 948.5,208.833 948.5,207.5 Z"/></g>
<g><path style="opacity:1" fill="#191124" d="M 972.5,207.5 C 973.5,207.5 974.5,207.5 975.5,207.5C 976.768,209.905 976.768,211.905 975.5,213.5C 973.423,212.012 972.423,210.012 972.5,207.5 Z"/></g>
<g><path style="opacity:1" fill="#2a1425" d="M 988.5,207.5 C 991.598,207.413 991.932,207.913 989.5,209C 992.051,210.516 991.718,211.349 988.5,211.5C 988.5,210.167 988.5,208.833 988.5,207.5 Z"/></g>
<g><path style="opacity:1" fill="#19111f" d="M 992.5,208.5 C 993.386,207.224 994.386,207.224 995.5,208.5C 994.359,209.425 994.359,210.259 995.5,211C 994.5,211.667 993.5,211.667 992.5,211C 993.774,210.023 993.774,209.189 992.5,208.5 Z"/></g>
<g><path style="opacity:1" fill="#190100" d="M 996.5,208.5 C 997.946,207.387 999.613,207.22 1001.5,208C 999.701,209.036 998.034,209.203 996.5,208.5 Z"/></g>
<g><path style="opacity:1" fill="#2a1425" d="M 1002.5,207.5 C 1005.6,207.413 1005.93,207.913 1003.5,209C 1006.05,210.516 1005.72,211.349 1002.5,211.5C 1002.5,210.167 1002.5,208.833 1002.5,207.5 Z"/></g>
<g><path style="opacity:1" fill="#391e20" d="M 886.5,207.5 C 889.5,207.167 890.833,208.5 890.5,211.5C 889.325,211.281 888.325,211.614 887.5,212.5C 888.506,213.396 888.506,214.062 887.5,214.5C 886.526,212.257 886.192,209.924 886.5,207.5 Z"/></g>
<g><path style="opacity:1" fill="#5a484d" d="M 892.5,207.5 C 895.5,207.167 896.833,208.5 896.5,211.5C 895.167,211.5 893.833,211.5 892.5,211.5C 892.5,210.167 892.5,208.833 892.5,207.5 Z"/></g>
<g><path style="opacity:1" fill="#391e20" d="M 898.5,207.5 C 901.5,207.167 902.833,208.5 902.5,211.5C 901.325,211.281 900.325,211.614 899.5,212.5C 900.506,213.396 900.506,214.062 899.5,214.5C 898.526,212.257 898.192,209.924 898.5,207.5 Z"/></g>
<g><path style="opacity:1" fill="#5a484d" d="M 908.5,207.5 C 911.5,207.167 912.833,208.5 912.5,211.5C 911.167,211.5 909.833,211.5 908.5,211.5C 908.5,210.167 908.5,208.833 908.5,207.5 Z"/></g>
<g><path style="opacity:1" fill="#9c7d7e" d="M 949.5,208.5 C 950.978,208.238 952.311,208.571 953.5,209.5C 952.833,209.833 952.167,210.167 951.5,210.5C 950.287,210.253 949.62,209.586 949.5,208.5 Z"/></g>
<g><path style="opacity:1" fill="#1a1011" d="M 980.5,208.5 C 982.718,208.422 985.052,208.256 987.5,208C 986,209.167 984.5,210.333 983,211.5C 982.623,210.058 981.79,209.058 980.5,208.5 Z"/></g>
<g><path style="opacity:1" fill="#5a484d" d="M 1016.5,207.5 C 1019.5,207.167 1020.83,208.5 1020.5,211.5C 1019.17,211.5 1017.83,211.5 1016.5,211.5C 1016.5,210.167 1016.5,208.833 1016.5,207.5 Z"/></g>
<g><path style="opacity:1" fill="#5a484d" d="M 1030.5,207.5 C 1033.5,207.167 1034.83,208.5 1034.5,211.5C 1033.17,211.5 1031.83,211.5 1030.5,211.5C 1030.5,210.167 1030.5,208.833 1030.5,207.5 Z"/></g>
<g><path style="opacity:1" fill="#3b3146" d="M 904.5,207.5 C 907.742,207.467 908.075,208.8 905.5,211.5C 904.571,210.311 904.238,208.978 904.5,207.5 Z"/></g>
<g><path style="opacity:1" fill="#262230" d="M 963.5,207.5 C 964.833,207.5 966.167,207.5 967.5,207.5C 967.5,208.833 967.5,210.167 967.5,211.5C 966.167,211.5 964.833,211.5 963.5,211.5C 963.5,210.167 963.5,208.833 963.5,207.5 Z"/></g>
<g><path style="opacity:1" fill="#230310" d="M 987.5,221.5 C 988.404,222.209 988.737,223.209 988.5,224.5C 991.598,224.413 991.932,224.913 989.5,226C 991.956,228.159 991.29,228.992 987.5,228.5C 987.5,226.167 987.5,223.833 987.5,221.5 Z"/></g>
<g><path style="opacity:1" fill="#1b0c18" d="M 905.5,224.5 C 908.718,224.651 909.051,225.484 906.5,227C 908.932,228.087 908.598,228.587 905.5,228.5C 905.5,227.167 905.5,225.833 905.5,224.5 Z"/></g>
<g><path style="opacity:1" fill="#361d3b" d="M 917.5,223.5 C 917.897,222.475 918.563,222.308 919.5,223C 921.019,224.351 922.352,225.851 923.5,227.5C 923.167,227.833 922.833,228.167 922.5,228.5C 920.994,226.599 919.327,224.932 917.5,223.5 Z"/></g>
<g><path style="opacity:1" fill="#19101e" d="M 925.5,224.5 C 926.5,224.5 927.5,224.5 928.5,224.5C 928.33,225.822 928.663,226.989 929.5,228C 928.207,228.49 926.873,228.657 925.5,228.5C 925.5,227.167 925.5,225.833 925.5,224.5 Z"/></g>
<g><path style="opacity:1" fill="#1b131b" d="M 930.5,224.5 C 933.993,224.998 937.326,224.998 940.5,224.5C 940.33,225.822 940.663,226.989 941.5,228C 937.848,228.499 934.182,228.665 930.5,228.5C 930.5,227.167 930.5,225.833 930.5,224.5 Z"/></g>
<g><path style="opacity:1" fill="#191124" d="M 954.5,224.5 C 955.5,224.5 956.5,224.5 957.5,224.5C 958.768,226.905 958.768,228.905 957.5,230.5C 955.423,229.012 954.423,227.012 954.5,224.5 Z"/></g>
<g><path style="opacity:1" fill="#261d2a" d="M 1008.5,224.5 C 1009.83,224.5 1011.17,224.5 1012.5,224.5C 1012.83,228.5 1013.17,228.5 1013.5,224.5C 1014.5,224.5 1015.5,224.5 1016.5,224.5C 1016.33,225.822 1016.66,226.989 1017.5,228C 1014.52,228.498 1011.52,228.665 1008.5,228.5C 1008.5,227.167 1008.5,225.833 1008.5,224.5 Z"/></g>
<g><path style="opacity:1" fill="#16061f" d="M 874.5,224.5 C 877.797,224.329 878.131,224.995 875.5,226.5C 878.131,228.005 877.797,228.671 874.5,228.5C 874.5,227.167 874.5,225.833 874.5,224.5 Z"/></g>
<g><path style="opacity:1" fill="#5a484d" d="M 879.5,224.5 C 882.5,224.167 883.833,225.5 883.5,228.5C 882.167,228.5 880.833,228.5 879.5,228.5C 879.5,227.167 879.5,225.833 879.5,224.5 Z"/></g>
<g><path style="opacity:1" fill="#16061f" d="M 889.5,224.5 C 892.797,224.329 893.131,224.995 890.5,226.5C 893.131,228.005 892.797,228.671 889.5,228.5C 889.5,227.167 889.5,225.833 889.5,224.5 Z"/></g>
<g><path style="opacity:1" fill="#16061f" d="M 900.5,224.5 C 903.797,224.329 904.131,224.995 901.5,226.5C 904.131,228.005 903.797,228.671 900.5,228.5C 900.5,227.167 900.5,225.833 900.5,224.5 Z"/></g>
<g><path style="opacity:1" fill="#9c7d7e" d="M 931.5,225.5 C 932.978,225.238 934.311,225.571 935.5,226.5C 934.833,226.833 934.167,227.167 933.5,227.5C 932.287,227.253 931.62,226.586 931.5,225.5 Z"/></g>
<g><path style="opacity:1" fill="#5a484d" d="M 969.5,224.5 C 972.5,224.167 973.833,225.5 973.5,228.5C 972.167,228.5 970.833,228.5 969.5,228.5C 969.5,227.167 969.5,225.833 969.5,224.5 Z"/></g>
<g><path style="opacity:1" fill="#070505" d="M 514.5,226.5 C 544.84,226.572 575.173,227.072 605.5,228C 625.621,231.031 645.621,234.697 665.5,239C 678.944,243.481 692.611,247.148 706.5,250C 712.147,252.966 717.814,255.966 723.5,259C 732.966,264.655 741.133,271.822 748,280.5C 751.591,288.02 754.925,295.686 758,303.5C 760.44,322.758 755.273,339.591 742.5,354C 733.007,360.913 723.341,367.58 713.5,374C 702.585,378.96 691.585,383.627 680.5,388C 670.852,390.549 661.518,393.882 652.5,398C 627.895,402.921 603.229,407.587 578.5,412C 547.844,421.055 516.844,428.555 485.5,434.5C 484.09,434.868 483.09,435.701 482.5,437C 469.369,438.41 456.203,440.244 443,442.5C 432.515,441.445 422.015,441.278 411.5,442C 391.939,445.4 372.272,446.233 352.5,444.5C 350.381,444.598 348.714,445.431 347.5,447C 345,447.167 342.5,447.333 340,447.5C 321.89,445.476 303.723,443.976 285.5,443C 274.171,437.839 262.504,433.506 250.5,430C 237.647,423.745 225.314,416.745 213.5,409C 209.367,403.866 204.867,399.032 200,394.5C 193.065,383.632 185.398,373.298 177,363.5C 165.983,344.46 163.65,324.46 170,303.5C 172.373,294.778 177.873,291.612 186.5,294C 191.833,296.333 197.167,298.667 202.5,301C 211.833,301.003 220.5,298.67 228.5,294C 235.587,293.145 242.587,291.812 249.5,290C 250.833,289 252.167,288 253.5,287C 261.663,284.595 269.996,282.928 278.5,282C 292.193,277.24 305.527,271.573 318.5,265C 348.082,256.773 378.082,250.106 408.5,245C 424.304,241.375 439.97,237.375 455.5,233C 467.477,231.961 479.477,231.294 491.5,231C 499.069,228.368 506.736,226.868 514.5,226.5 Z"/></g>
<g><path style="opacity:1" fill="#2c1e2b" d="M 894.5,221.5 C 895.404,222.209 895.737,223.209 895.5,224.5C 896.5,224.5 897.5,224.5 898.5,224.5C 898.5,225.833 898.5,227.167 898.5,228.5C 897.167,228.5 895.833,228.5 894.5,228.5C 894.5,226.167 894.5,223.833 894.5,221.5 Z"/></g>
<g><path style="opacity:1" fill="#262230" d="M 945.5,224.5 C 946.833,224.5 948.167,224.5 949.5,224.5C 949.5,225.833 949.5,227.167 949.5,228.5C 948.167,228.5 946.833,228.5 945.5,228.5C 945.5,227.167 945.5,225.833 945.5,224.5 Z"/></g>
<g><path style="opacity:1" fill="#1b1117" d="M 965.5,221.5 C 966.817,223.287 966.484,224.954 964.5,226.5C 968.374,228.002 968.041,228.669 963.5,228.5C 963.884,226.071 964.551,223.737 965.5,221.5 Z"/></g>
<g><path style="opacity:1" fill="#20191d" d="M 975.5,224.5 C 979.101,224.672 982.434,225.005 985.5,225.5C 983.009,226.541 983.009,227.374 985.5,228C 982.183,228.498 978.85,228.665 975.5,228.5C 975.5,227.167 975.5,225.833 975.5,224.5 Z"/></g>
<g><path style="opacity:1" fill="#230310" d="M 906.5,238.5 C 907.404,239.209 907.737,240.209 907.5,241.5C 910.598,241.413 910.932,241.913 908.5,243C 910.956,245.159 910.29,245.992 906.5,245.5C 906.5,243.167 906.5,240.833 906.5,238.5 Z"/></g>
<g><path style="opacity:1" fill="#32192f" d="M 980.5,238.5 C 982.273,240.6 982.606,242.934 981.5,245.5C 980.526,243.257 980.192,240.924 980.5,238.5 Z"/></g>
<g><path style="opacity:1" fill="#0e0000" d="M 918.5,240.5 C 919.289,240.783 919.956,241.283 920.5,242C 919.888,243.303 919.554,244.47 919.5,245.5C 918.548,243.955 918.215,242.288 918.5,240.5 Z"/></g>
<g><path style="opacity:1" fill="#ec1c24" d="M 744.5,298.5 C 745.314,303.119 745.647,307.786 745.5,312.5C 745.933,318.834 744.766,324.834 742,330.5C 731.396,345.436 717.562,356.269 700.5,363C 670.649,374.707 640.316,384.707 609.5,393C 578.309,399.972 546.976,406.305 515.5,412C 472.011,426.308 427.344,432.975 381.5,432C 356.167,432.667 330.833,432.667 305.5,432C 270.849,425.425 240.682,410.258 215,386.5C 202.354,372.862 191.688,357.862 183,341.5C 181.148,334.772 179.648,328.105 178.5,321.5C 178.5,318.167 178.5,314.833 178.5,311.5C 180.833,311.5 183.167,311.5 185.5,311.5C 197.771,314.259 210.438,315.259 223.5,314.5C 227.489,314.884 231.155,314.217 234.5,312.5C 260.486,304.45 285.986,295.116 311,284.5C 328.394,279.203 345.894,274.203 363.5,269.5C 362.691,290.496 362.524,311.496 363,332.5C 364.952,338.452 368.452,343.285 373.5,347C 380.268,350.779 387.268,354.112 394.5,357C 428.399,360.678 462.399,362.011 496.5,361C 498.5,360.333 500.5,359.667 502.5,359C 515.793,347.236 522.126,332.403 521.5,314.5C 522.658,305.009 522.825,295.342 522,285.5C 521.722,284.584 521.222,283.918 520.5,283.5C 515.65,269.629 510.65,255.796 505.5,242C 544.507,241.387 583.507,241.721 622.5,243C 648.764,246.86 674.597,252.36 700,259.5C 714.563,265.786 727.23,274.786 738,286.5C 740.064,290.685 742.231,294.685 744.5,298.5 Z"/></g>
<g><path style="opacity:1" fill="#211419" d="M 897.5,241.5 C 900.718,241.651 901.051,242.484 898.5,244C 900.932,245.087 900.598,245.587 897.5,245.5C 897.5,244.167 897.5,242.833 897.5,241.5 Z"/></g>
<g><path style="opacity:1" fill="#19101e" d="M 922.5,241.5 C 923.5,241.5 924.5,241.5 925.5,241.5C 925.33,242.822 925.663,243.989 926.5,245C 925.207,245.49 923.873,245.657 922.5,245.5C 922.5,244.167 922.5,242.833 922.5,241.5 Z"/></g>
<g><path style="opacity:1" fill="#211419" d="M 949.5,241.5 C 952.718,241.651 953.051,242.484 950.5,244C 952.932,245.087 952.598,245.587 949.5,245.5C 949.5,244.167 949.5,242.833 949.5,241.5 Z"/></g>
<g><path style="opacity:1" fill="#2a1425" d="M 954.5,241.5 C 957.598,241.413 957.932,241.913 955.5,243C 958.051,244.516 957.718,245.349 954.5,245.5C 954.5,244.167 954.5,242.833 954.5,241.5 Z"/></g>
<g><path style="opacity:1" fill="#211419" d="M 967.5,241.5 C 970.718,241.651 971.051,242.484 968.5,244C 970.932,245.087 970.598,245.587 967.5,245.5C 967.5,244.167 967.5,242.833 967.5,241.5 Z"/></g>
<g><path style="opacity:1" fill="#221b38" d="M 976.5,241.5 C 977.552,241.351 978.552,241.517 979.5,242C 979.554,243.351 979.054,244.518 978,245.5C 977.5,245.333 977,245.167 976.5,245C 977.171,244.014 977.171,242.847 976.5,241.5 Z"/></g>
<g><path style="opacity:1" fill="#361d3b" d="M 1010.5,240.5 C 1010.9,239.475 1011.56,239.308 1012.5,240C 1014.02,241.351 1015.35,242.851 1016.5,244.5C 1016.17,244.833 1015.83,245.167 1015.5,245.5C 1013.99,243.599 1012.33,241.932 1010.5,240.5 Z"/></g>
<g><path style="opacity:1" fill="#19101e" d="M 1018.5,241.5 C 1019.5,241.5 1020.5,241.5 1021.5,241.5C 1021.33,242.822 1021.66,243.989 1022.5,245C 1021.21,245.49 1019.87,245.657 1018.5,245.5C 1018.5,244.167 1018.5,242.833 1018.5,241.5 Z"/></g>
<g><path style="opacity:1" fill="#fdf001" d="M 373.5,332.5 C 371.657,321.952 370.991,311.286 371.5,300.5C 372.259,289.183 372.593,277.85 372.5,266.5C 393.76,262.768 414.76,257.935 435.5,252C 455.733,247.85 476.066,244.35 496.5,241.5C 500.589,257.344 506.089,272.678 513,287.5C 513.667,298.833 513.667,310.167 513,321.5C 510.912,333.845 505.079,344.012 495.5,352C 466.135,352.666 436.802,351.999 407.5,350C 393.496,349.12 382.163,343.287 373.5,332.5 Z"/></g>
<g><path style="opacity:1" fill="#391e20" d="M 874.5,241.5 C 877.5,241.167 878.833,242.5 878.5,245.5C 877.325,245.281 876.325,245.614 875.5,246.5C 876.506,247.396 876.506,248.062 875.5,248.5C 874.526,246.257 874.192,243.924 874.5,241.5 Z"/></g>
<g><path style="opacity:1" fill="#280605" d="M 880.5,238.5 C 882.767,240.633 882.934,242.966 881,245.5C 879.887,243.408 879.721,241.075 880.5,238.5 Z"/></g>
<g><path style="opacity:1" fill="#5a484d" d="M 883.5,241.5 C 886.5,241.167 887.833,242.5 887.5,245.5C 886.167,245.5 884.833,245.5 883.5,245.5C 883.5,244.167 883.5,242.833 883.5,241.5 Z"/></g>
<g><path style="opacity:1" fill="#16061f" d="M 889.5,241.5 C 892.797,241.329 893.131,241.995 890.5,243.5C 893.131,245.005 892.797,245.671 889.5,245.5C 889.5,244.167 889.5,242.833 889.5,241.5 Z"/></g>
<g><path style="opacity:1" fill="#25020e" d="M 894.5,241.5 C 895.249,242.531 895.915,243.698 896.5,245C 896.167,245.167 895.833,245.333 895.5,245.5C 894.571,244.311 894.238,242.978 894.5,241.5 Z"/></g>
<g><path style="opacity:1" fill="#5a484d" d="M 912.5,241.5 C 915.5,241.167 916.833,242.5 916.5,245.5C 915.167,245.5 913.833,245.5 912.5,245.5C 912.5,244.167 912.5,242.833 912.5,241.5 Z"/></g>
<g><path style="opacity:1" fill="#1a1011" d="M 941.5,242.5 C 943.718,242.422 946.052,242.256 948.5,242C 947,243.167 945.5,244.333 944,245.5C 943.623,244.058 942.79,243.058 941.5,242.5 Z"/></g>
<g><path style="opacity:1" fill="#5a484d" d="M 958.5,241.5 C 961.5,241.167 962.833,242.5 962.5,245.5C 961.167,245.5 959.833,245.5 958.5,245.5C 958.5,244.167 958.5,242.833 958.5,241.5 Z"/></g>
<g><path style="opacity:1" fill="#280605" d="M 964.5,238.5 C 966.767,240.633 966.934,242.966 965,245.5C 963.887,243.408 963.721,241.075 964.5,238.5 Z"/></g>
<g><path style="opacity:1" fill="#5a484d" d="M 983.5,241.5 C 986.5,241.167 987.833,242.5 987.5,245.5C 986.167,245.5 984.833,245.5 983.5,245.5C 983.5,244.167 983.5,242.833 983.5,241.5 Z"/></g>
<g><path style="opacity:1" fill="#5a484d" d="M 1000.5,241.5 C 1003.5,241.167 1004.83,242.5 1004.5,245.5C 1003.17,245.5 1001.83,245.5 1000.5,245.5C 1000.5,244.167 1000.5,242.833 1000.5,241.5 Z"/></g>
<g><path style="opacity:1" fill="#261723" d="M 994.5,238.5 C 995.404,239.209 995.737,240.209 995.5,241.5C 998.598,241.413 998.932,241.913 996.5,243C 997.167,243.667 997.833,244.333 998.5,245C 995.518,245.498 992.518,245.665 989.5,245.5C 989.5,244.167 989.5,242.833 989.5,241.5C 990.833,241.5 992.167,241.5 993.5,241.5C 993.351,242.552 993.517,243.552 994,244.5C 994.495,242.527 994.662,240.527 994.5,238.5 Z"/></g>
<g><path style="opacity:1" fill="#230310" d="M 991.5,255.5 C 992.404,256.209 992.737,257.209 992.5,258.5C 995.598,258.413 995.932,258.913 993.5,260C 995.956,262.159 995.29,262.992 991.5,262.5C 991.5,260.167 991.5,257.833 991.5,255.5 Z"/></g>
<g><path style="opacity:1" fill="#31282d" d="M 897.5,258.5 C 901.167,258.5 904.833,258.5 908.5,258.5C 908.5,259.833 908.5,261.167 908.5,262.5C 904.833,262.5 901.167,262.5 897.5,262.5C 897.5,261.167 897.5,259.833 897.5,258.5 Z"/></g>
<g><path style="opacity:1" fill="#37273e" d="M 951.5,256.5 C 952.376,256.369 953.043,256.702 953.5,257.5C 954.074,259.059 954.74,260.559 955.5,262C 953.892,262.658 952.725,262.158 952,260.5C 951.275,262.158 950.108,262.658 948.5,262C 950.342,260.654 951.342,258.821 951.5,256.5 Z"/></g>
<g><path style="opacity:1" fill="#14050a" d="M 960.5,258.5 C 964.876,257.888 965.543,259.054 962.5,262C 963.956,262.423 964.456,263.256 964,264.5C 962.989,263.663 961.822,263.33 960.5,263.5C 960.5,261.833 960.5,260.167 960.5,258.5 Z"/></g>
<g><path style="opacity:1" fill="#190100" d="M 970.5,259.5 C 971.946,258.387 973.613,258.22 975.5,259C 973.701,260.036 972.034,260.203 970.5,259.5 Z"/></g>
<g><path style="opacity:1" fill="#2a1425" d="M 1003.5,258.5 C 1006.6,258.413 1006.93,258.913 1004.5,260C 1007.05,261.516 1006.72,262.349 1003.5,262.5C 1003.5,261.167 1003.5,259.833 1003.5,258.5 Z"/></g>
<g><path style="opacity:1" fill="#2a1425" d="M 1020.5,258.5 C 1023.6,258.413 1023.93,258.913 1021.5,260C 1024.05,261.516 1023.72,262.349 1020.5,262.5C 1020.5,261.167 1020.5,259.833 1020.5,258.5 Z"/></g>
<g><path style="opacity:1" fill="#391e20" d="M 874.5,258.5 C 877.5,258.167 878.833,259.5 878.5,262.5C 877.325,262.281 876.325,262.614 875.5,263.5C 876.506,264.396 876.506,265.062 875.5,265.5C 874.526,263.257 874.192,260.924 874.5,258.5 Z"/></g>
<g><path style="opacity:1" fill="#5a484d" d="M 880.5,258.5 C 883.5,258.167 884.833,259.5 884.5,262.5C 883.167,262.5 881.833,262.5 880.5,262.5C 880.5,261.167 880.5,259.833 880.5,258.5 Z"/></g>
<g><path style="opacity:1" fill="#16061f" d="M 886.5,258.5 C 889.797,258.329 890.131,258.995 887.5,260.5C 890.131,262.005 889.797,262.671 886.5,262.5C 886.5,261.167 886.5,259.833 886.5,258.5 Z"/></g>
<g><path style="opacity:1" fill="#1a1011" d="M 979.5,259.5 C 981.718,259.422 984.052,259.256 986.5,259C 985,260.167 983.5,261.333 982,262.5C 981.623,261.058 980.79,260.058 979.5,259.5 Z"/></g>
<g><path style="opacity:1" fill="#5a484d" d="M 997.5,258.5 C 1000.5,258.167 1001.83,259.5 1001.5,262.5C 1000.17,262.5 998.833,262.5 997.5,262.5C 997.5,261.167 997.5,259.833 997.5,258.5 Z"/></g>
<g><path style="opacity:1" fill="#211b25" d="M 1007.5,258.5 C 1009.53,258.338 1011.53,258.505 1013.5,259C 1015.06,260.887 1016.73,261.72 1018.5,261.5C 1014.89,262.489 1011.23,262.823 1007.5,262.5C 1007.5,261.167 1007.5,259.833 1007.5,258.5 Z"/></g>
<g><path style="opacity:1" fill="#3b3146" d="M 910.5,258.5 C 913.742,258.467 914.075,259.8 911.5,262.5C 910.571,261.311 910.238,259.978 910.5,258.5 Z"/></g>
<g><path style="opacity:1" fill="#2c1e2b" d="M 891.5,255.5 C 892.404,256.209 892.737,257.209 892.5,258.5C 893.5,258.5 894.5,258.5 895.5,258.5C 895.5,259.833 895.5,261.167 895.5,262.5C 894.167,262.5 892.833,262.5 891.5,262.5C 891.5,260.167 891.5,257.833 891.5,255.5 Z"/></g>
<g><path style="opacity:1" fill="#281c23" d="M 914.5,259.5 C 916.23,258.088 917.73,258.422 919,260.5C 919.826,258.595 920.993,258.261 922.5,259.5C 920.009,260.541 920.009,261.374 922.5,262C 919.833,262.667 917.167,262.667 914.5,262C 915.774,261.023 915.774,260.189 914.5,259.5 Z"/></g>
<g><path style="opacity:1" fill="#1b1117" d="M 930.5,255.5 C 931.817,257.287 931.484,258.954 929.5,260.5C 933.374,262.002 933.041,262.669 928.5,262.5C 928.884,260.071 929.551,257.737 930.5,255.5 Z"/></g>
<g><path style="opacity:1" fill="#2a1d28" d="M 934.5,258.5 C 935.833,258.5 937.167,258.5 938.5,258.5C 938.693,262.449 939.193,262.449 940,258.5C 940.309,259.766 940.809,260.933 941.5,262C 939.19,262.497 936.857,262.663 934.5,262.5C 934.5,261.167 934.5,259.833 934.5,258.5 Z"/></g>
<g><path style="opacity:1" fill="#1b1117" d="M 967.5,255.5 C 968.817,257.287 968.484,258.954 966.5,260.5C 970.374,262.002 970.041,262.669 965.5,262.5C 965.884,260.071 966.551,257.737 967.5,255.5 Z"/></g>
<g><path style="opacity:1" fill="#554142" d="M 904.5,273.5 C 906.665,273.116 908.332,273.783 909.5,275.5C 907.833,276.5 906.5,277.833 905.5,279.5C 904.534,277.604 904.201,275.604 904.5,273.5 Z"/></g>
<g><path style="opacity:1" fill="#0e0000" d="M 987.5,274.5 C 988.289,274.783 988.956,275.283 989.5,276C 988.888,277.303 988.554,278.47 988.5,279.5C 987.548,277.955 987.215,276.288 987.5,274.5 Z"/></g>
<g><path style="opacity:1" fill="#211419" d="M 877.5,275.5 C 880.718,275.651 881.051,276.484 878.5,278C 880.932,279.087 880.598,279.587 877.5,279.5C 877.5,278.167 877.5,276.833 877.5,275.5 Z"/></g>
<g><path style="opacity:1" fill="#211419" d="M 890.5,275.5 C 893.718,275.651 894.051,276.484 891.5,278C 893.932,279.087 893.598,279.587 890.5,279.5C 890.5,278.167 890.5,276.833 890.5,275.5 Z"/></g>
<g><path style="opacity:1" fill="#19111f" d="M 914.5,276.5 C 915.386,275.224 916.386,275.224 917.5,276.5C 916.359,277.425 916.359,278.259 917.5,279C 916.5,279.667 915.5,279.667 914.5,279C 915.774,278.023 915.774,277.189 914.5,276.5 Z"/></g>
<g><path style="opacity:1" fill="#250c0f" d="M 918.5,276.5 C 920.607,275.532 922.941,275.198 925.5,275.5C 925.663,277.857 925.497,280.19 925,282.5C 924.505,280.527 924.338,278.527 924.5,276.5C 922.297,276.935 920.297,276.935 918.5,276.5 Z"/></g>
<g><path style="opacity:1" fill="#19111f" d="M 933.5,276.5 C 934.386,275.224 935.386,275.224 936.5,276.5C 935.359,277.425 935.359,278.259 936.5,279C 935.5,279.667 934.5,279.667 933.5,279C 934.774,278.023 934.774,277.189 933.5,276.5 Z"/></g>
<g><path style="opacity:1" fill="#211419" d="M 941.5,275.5 C 944.718,275.651 945.051,276.484 942.5,278C 944.932,279.087 944.598,279.587 941.5,279.5C 941.5,278.167 941.5,276.833 941.5,275.5 Z"/></g>
<g><path style="opacity:1" fill="#19101e" d="M 991.5,275.5 C 992.5,275.5 993.5,275.5 994.5,275.5C 994.33,276.822 994.663,277.989 995.5,279C 994.207,279.49 992.873,279.657 991.5,279.5C 991.5,278.167 991.5,276.833 991.5,275.5 Z"/></g>
<g><path style="opacity:1" fill="#16061f" d="M 882.5,275.5 C 885.797,275.329 886.131,275.995 883.5,277.5C 886.131,279.005 885.797,279.671 882.5,279.5C 882.5,278.167 882.5,276.833 882.5,275.5 Z"/></g>
<g><path style="opacity:1" fill="#25020e" d="M 887.5,275.5 C 888.249,276.531 888.915,277.698 889.5,279C 889.167,279.167 888.833,279.333 888.5,279.5C 887.571,278.311 887.238,276.978 887.5,275.5 Z"/></g>
<g><path style="opacity:1" fill="#25020e" d="M 938.5,275.5 C 939.249,276.531 939.915,277.698 940.5,279C 940.167,279.167 939.833,279.333 939.5,279.5C 938.571,278.311 938.238,276.978 938.5,275.5 Z"/></g>
<g><path style="opacity:1" fill="#5a484d" d="M 964.5,275.5 C 967.5,275.167 968.833,276.5 968.5,279.5C 967.167,279.5 965.833,279.5 964.5,279.5C 964.5,278.167 964.5,276.833 964.5,275.5 Z"/></g>
<g><path style="opacity:1" fill="#16061f" d="M 970.5,275.5 C 973.797,275.329 974.131,275.995 971.5,277.5C 974.131,279.005 973.797,279.671 970.5,279.5C 970.5,278.167 970.5,276.833 970.5,275.5 Z"/></g>
<g><path style="opacity:1" fill="#5a484d" d="M 981.5,275.5 C 984.5,275.167 985.833,276.5 985.5,279.5C 984.167,279.5 982.833,279.5 981.5,279.5C 981.5,278.167 981.5,276.833 981.5,275.5 Z"/></g>
<g><path style="opacity:1" fill="#3b3146" d="M 910.5,275.5 C 913.742,275.467 914.075,276.8 911.5,279.5C 910.571,278.311 910.238,276.978 910.5,275.5 Z"/></g>
<g><path style="opacity:1" fill="#1a111b" d="M 897.5,273.5 C 898.713,274.952 898.38,276.286 896.5,277.5C 899.131,279.005 898.797,279.671 895.5,279.5C 895.614,277.282 896.28,275.282 897.5,273.5 Z"/></g>
<g><path style="opacity:1" fill="#1b1117" d="M 929.5,272.5 C 930.817,274.287 930.484,275.954 928.5,277.5C 932.374,279.002 932.041,279.669 927.5,279.5C 927.884,277.071 928.551,274.737 929.5,272.5 Z"/></g>
<g><path style="opacity:1" fill="#35292b" d="M 950.5,275.5 C 953.167,275.5 955.833,275.5 958.5,275.5C 958.33,276.822 958.663,277.989 959.5,279C 956.518,279.498 953.518,279.665 950.5,279.5C 950.5,278.167 950.5,276.833 950.5,275.5 Z"/></g>
<g><path style="opacity:1" fill="#2c1e2b" d="M 975.5,272.5 C 976.404,273.209 976.737,274.209 976.5,275.5C 977.5,275.5 978.5,275.5 979.5,275.5C 979.5,276.833 979.5,278.167 979.5,279.5C 978.167,279.5 976.833,279.5 975.5,279.5C 975.5,277.167 975.5,274.833 975.5,272.5 Z"/></g>
<g><path style="opacity:1" fill="#230310" d="M 935.5,289.5 C 936.404,290.209 936.737,291.209 936.5,292.5C 939.598,292.413 939.932,292.913 937.5,294C 939.956,296.159 939.29,296.992 935.5,296.5C 935.5,294.167 935.5,291.833 935.5,289.5 Z"/></g>
<g><path style="opacity:1" fill="#554142" d="M 874.5,290.5 C 876.665,290.116 878.332,290.783 879.5,292.5C 877.833,293.5 876.5,294.833 875.5,296.5C 874.534,294.604 874.201,292.604 874.5,290.5 Z"/></g>
<g><path style="opacity:1" fill="#0e0000" d="M 949.5,291.5 C 950.289,291.783 950.956,292.283 951.5,293C 950.888,294.303 950.554,295.47 950.5,296.5C 949.548,294.955 949.215,293.288 949.5,291.5 Z"/></g>
<g><path style="opacity:1" fill="#19101e" d="M 884.5,292.5 C 885.5,292.5 886.5,292.5 887.5,292.5C 887.33,293.822 887.663,294.989 888.5,296C 887.207,296.49 885.873,296.657 884.5,296.5C 884.5,295.167 884.5,293.833 884.5,292.5 Z"/></g>
<g><path style="opacity:1" fill="#19111f" d="M 902.5,293.5 C 903.386,292.224 904.386,292.224 905.5,293.5C 904.359,294.425 904.359,295.259 905.5,296C 904.5,296.667 903.5,296.667 902.5,296C 903.774,295.023 903.774,294.189 902.5,293.5 Z"/></g>
<g><path style="opacity:1" fill="#191124" d="M 917.5,292.5 C 918.5,292.5 919.5,292.5 920.5,292.5C 921.768,294.905 921.768,296.905 920.5,298.5C 918.423,297.012 917.423,295.012 917.5,292.5 Z"/></g>
<g><path style="opacity:1" fill="#19101e" d="M 930.5,292.5 C 931.5,292.5 932.5,292.5 933.5,292.5C 933.33,293.822 933.663,294.989 934.5,296C 933.207,296.49 931.873,296.657 930.5,296.5C 930.5,295.167 930.5,293.833 930.5,292.5 Z"/></g>
<g><path style="opacity:1" fill="#211419" d="M 944.5,292.5 C 947.718,292.651 948.051,293.484 945.5,295C 947.932,296.087 947.598,296.587 944.5,296.5C 944.5,295.167 944.5,293.833 944.5,292.5 Z"/></g>
<g><path style="opacity:1" fill="#1b0c18" d="M 953.5,292.5 C 956.718,292.651 957.051,293.484 954.5,295C 956.932,296.087 956.598,296.587 953.5,296.5C 953.5,295.167 953.5,293.833 953.5,292.5 Z"/></g>
<g><path style="opacity:1" fill="#361d3b" d="M 962.5,291.5 C 962.897,290.475 963.563,290.308 964.5,291C 966.019,292.351 967.352,293.851 968.5,295.5C 968.167,295.833 967.833,296.167 967.5,296.5C 965.994,294.599 964.327,292.932 962.5,291.5 Z"/></g>
<g><path style="opacity:1" fill="#19101e" d="M 970.5,292.5 C 971.5,292.5 972.5,292.5 973.5,292.5C 973.33,293.822 973.663,294.989 974.5,296C 973.207,296.49 971.873,296.657 970.5,296.5C 970.5,295.167 970.5,293.833 970.5,292.5 Z"/></g>
<g><path style="opacity:1" fill="#1b131b" d="M 975.5,292.5 C 978.993,292.998 982.326,292.998 985.5,292.5C 985.33,293.822 985.663,294.989 986.5,296C 982.848,296.499 979.182,296.665 975.5,296.5C 975.5,295.167 975.5,293.833 975.5,292.5 Z"/></g>
<g><path style="opacity:1" fill="#191124" d="M 999.5,292.5 C 1000.5,292.5 1001.5,292.5 1002.5,292.5C 1003.77,294.905 1003.77,296.905 1002.5,298.5C 1000.42,297.012 999.423,295.012 999.5,292.5 Z"/></g>
<g><path style="opacity:1" fill="#1a1011" d="M 888.5,293.5 C 890.718,293.422 893.052,293.256 895.5,293C 894,294.167 892.5,295.333 891,296.5C 890.623,295.058 889.79,294.058 888.5,293.5 Z"/></g>
<g><path style="opacity:1" fill="#25020e" d="M 907.5,292.5 C 908.249,293.531 908.915,294.698 909.5,296C 909.167,296.167 908.833,296.333 908.5,296.5C 907.571,295.311 907.238,293.978 907.5,292.5 Z"/></g>
<g><path style="opacity:1" fill="#1a1011" d="M 909.5,293.5 C 911.718,293.422 914.052,293.256 916.5,293C 915,294.167 913.5,295.333 912,296.5C 911.623,295.058 910.79,294.058 909.5,293.5 Z"/></g>
<g><path style="opacity:1" fill="#25020e" d="M 941.5,292.5 C 942.249,293.531 942.915,294.698 943.5,296C 943.167,296.167 942.833,296.333 942.5,296.5C 941.571,295.311 941.238,293.978 941.5,292.5 Z"/></g>
<g><path style="opacity:1" fill="#9c7d7e" d="M 976.5,293.5 C 977.978,293.238 979.311,293.571 980.5,294.5C 979.833,294.833 979.167,295.167 978.5,295.5C 977.287,295.253 976.62,294.586 976.5,293.5 Z"/></g>
<g><path style="opacity:1" fill="#3b3146" d="M 880.5,292.5 C 883.742,292.467 884.075,293.8 881.5,296.5C 880.571,295.311 880.238,293.978 880.5,292.5 Z"/></g>
<g><path style="opacity:1" fill="#3b3146" d="M 926.5,292.5 C 929.742,292.467 930.075,293.8 927.5,296.5C 926.571,295.311 926.238,293.978 926.5,292.5 Z"/></g>
<g><path style="opacity:1" fill="#1b1117" d="M 898.5,289.5 C 899.817,291.287 899.484,292.954 897.5,294.5C 901.374,296.002 901.041,296.669 896.5,296.5C 896.884,294.071 897.551,291.737 898.5,289.5 Z"/></g>
<g><path style="opacity:1" fill="#262230" d="M 990.5,292.5 C 991.833,292.5 993.167,292.5 994.5,292.5C 994.5,293.833 994.5,295.167 994.5,296.5C 993.167,296.5 991.833,296.5 990.5,296.5C 990.5,295.167 990.5,293.833 990.5,292.5 Z"/></g>
<g><path style="opacity:1" fill="#35292b" d="M 1008.5,292.5 C 1011.17,292.5 1013.83,292.5 1016.5,292.5C 1016.33,293.822 1016.66,294.989 1017.5,296C 1014.52,296.498 1011.52,296.665 1008.5,296.5C 1008.5,295.167 1008.5,293.833 1008.5,292.5 Z"/></g>
<g><path style="opacity:1" fill="#7e8590" d="M 520.5,283.5 C 521.222,283.918 521.722,284.584 522,285.5C 522.825,295.342 522.658,305.009 521.5,314.5C 521.56,304.15 521.226,293.817 520.5,283.5 Z"/></g>
<g><path style="opacity:1" fill="#6b909a" d="M 744.5,298.5 C 746.047,300.807 746.713,303.473 746.5,306.5C 746.495,308.696 746.162,310.696 745.5,312.5C 745.647,307.786 745.314,303.119 744.5,298.5 Z"/></g>
<g><path style="opacity:1" fill="#230310" d="M 922.5,306.5 C 923.404,307.209 923.737,308.209 923.5,309.5C 926.598,309.413 926.932,309.913 924.5,311C 926.956,313.159 926.29,313.992 922.5,313.5C 922.5,311.167 922.5,308.833 922.5,306.5 Z"/></g>
<g><path style="opacity:1" fill="#230310" d="M 943.5,306.5 C 944.404,307.209 944.737,308.209 944.5,309.5C 947.598,309.413 947.932,309.913 945.5,311C 947.956,313.159 947.29,313.992 943.5,313.5C 943.5,311.167 943.5,308.833 943.5,306.5 Z"/></g>
<g><path style="opacity:1" fill="#230310" d="M 1008.5,306.5 C 1009.4,307.209 1009.74,308.209 1009.5,309.5C 1012.6,309.413 1012.93,309.913 1010.5,311C 1012.96,313.159 1012.29,313.992 1008.5,313.5C 1008.5,311.167 1008.5,308.833 1008.5,306.5 Z"/></g>
<g><path style="opacity:1" fill="#211419" d="M 913.5,309.5 C 916.718,309.651 917.051,310.484 914.5,312C 916.932,313.087 916.598,313.587 913.5,313.5C 913.5,312.167 913.5,310.833 913.5,309.5 Z"/></g>
<g><path style="opacity:1" fill="#211419" d="M 932.5,309.5 C 935.718,309.651 936.051,310.484 933.5,312C 935.932,313.087 935.598,313.587 932.5,313.5C 932.5,312.167 932.5,310.833 932.5,309.5 Z"/></g>
<g><path style="opacity:1" fill="#211419" d="M 985.5,309.5 C 988.718,309.651 989.051,310.484 986.5,312C 988.932,313.087 988.598,313.587 985.5,313.5C 985.5,312.167 985.5,310.833 985.5,309.5 Z"/></g>
<g><path style="opacity:1" fill="#211419" d="M 993.5,309.5 C 996.718,309.651 997.051,310.484 994.5,312C 996.932,313.087 996.598,313.587 993.5,313.5C 993.5,312.167 993.5,310.833 993.5,309.5 Z"/></g>
<g><path style="opacity:1" fill="#19111f" d="M 1003.5,310.5 C 1004.39,309.224 1005.39,309.224 1006.5,310.5C 1005.36,311.425 1005.36,312.259 1006.5,313C 1005.5,313.667 1004.5,313.667 1003.5,313C 1004.77,312.023 1004.77,311.189 1003.5,310.5 Z"/></g>
<g><path style="opacity:1" fill="#4a312e" d="M 874.5,307.5 C 876.39,308.18 878.39,308.347 880.5,308C 878.906,309.8 877.239,311.633 875.5,313.5C 874.534,311.604 874.201,309.604 874.5,307.5 Z"/></g>
<g><path style="opacity:1" fill="#5a484d" d="M 881.5,309.5 C 884.5,309.167 885.833,310.5 885.5,313.5C 884.167,313.5 882.833,313.5 881.5,313.5C 881.5,312.167 881.5,310.833 881.5,309.5 Z"/></g>
<g><path style="opacity:1" fill="#5a484d" d="M 890.5,309.5 C 893.5,309.167 894.833,310.5 894.5,313.5C 893.167,313.5 891.833,313.5 890.5,313.5C 890.5,312.167 890.5,310.833 890.5,309.5 Z"/></g>
<g><path style="opacity:1" fill="#5a484d" d="M 900.5,309.5 C 903.5,309.167 904.833,310.5 904.5,313.5C 903.167,313.5 901.833,313.5 900.5,313.5C 900.5,312.167 900.5,310.833 900.5,309.5 Z"/></g>
<g><path style="opacity:1" fill="#1a1011" d="M 905.5,310.5 C 907.718,310.422 910.052,310.256 912.5,310C 911,311.167 909.5,312.333 908,313.5C 907.623,312.058 906.79,311.058 905.5,310.5 Z"/></g>
<g><path style="opacity:1" fill="#25020e" d="M 949.5,309.5 C 950.249,310.531 950.915,311.698 951.5,313C 951.167,313.167 950.833,313.333 950.5,313.5C 949.571,312.311 949.238,310.978 949.5,309.5 Z"/></g>
<g><path style="opacity:1" fill="#1a1011" d="M 955.5,310.5 C 957.718,310.422 960.052,310.256 962.5,310C 961,311.167 959.5,312.333 958,313.5C 957.623,312.058 956.79,311.058 955.5,310.5 Z"/></g>
<g><path style="opacity:1" fill="#391e20" d="M 967.5,309.5 C 970.5,309.167 971.833,310.5 971.5,313.5C 970.325,313.281 969.325,313.614 968.5,314.5C 969.506,315.396 969.506,316.062 968.5,316.5C 967.526,314.257 967.192,311.924 967.5,309.5 Z"/></g>
<g><path style="opacity:1" fill="#280605" d="M 990.5,306.5 C 992.767,308.633 992.934,310.966 991,313.5C 989.887,311.408 989.721,309.075 990.5,306.5 Z"/></g>
<g><path style="opacity:1" fill="#16061f" d="M 998.5,309.5 C 1001.8,309.329 1002.13,309.995 999.5,311.5C 1002.13,313.005 1001.8,313.671 998.5,313.5C 998.5,312.167 998.5,310.833 998.5,309.5 Z"/></g>
<g><path style="opacity:1" fill="#3b3146" d="M 896.5,309.5 C 899.742,309.467 900.075,310.8 897.5,313.5C 896.571,312.311 896.238,310.978 896.5,309.5 Z"/></g>
<g><path style="opacity:1" fill="#3b3146" d="M 928.5,309.5 C 931.742,309.467 932.075,310.8 929.5,313.5C 928.571,312.311 928.238,310.978 928.5,309.5 Z"/></g>
<g><path style="opacity:1" fill="#1b1117" d="M 939.5,306.5 C 940.817,308.287 940.484,309.954 938.5,311.5C 942.374,313.002 942.041,313.669 937.5,313.5C 937.884,311.071 938.551,308.737 939.5,306.5 Z"/></g>
<g><path style="opacity:1" fill="#262230" d="M 973.5,309.5 C 974.833,309.5 976.167,309.5 977.5,309.5C 977.5,310.833 977.5,312.167 977.5,313.5C 976.167,313.5 974.833,313.5 973.5,313.5C 973.5,312.167 973.5,310.833 973.5,309.5 Z"/></g>
<g><path style="opacity:1" fill="#1b1117" d="M 981.5,306.5 C 982.817,308.287 982.484,309.954 980.5,311.5C 984.374,313.002 984.041,313.669 979.5,313.5C 979.884,311.071 980.551,308.737 981.5,306.5 Z"/></g>
<g><path style="opacity:1" fill="#262230" d="M 1014.5,309.5 C 1015.83,309.5 1017.17,309.5 1018.5,309.5C 1018.5,310.833 1018.5,312.167 1018.5,313.5C 1017.17,313.5 1015.83,313.5 1014.5,313.5C 1014.5,312.167 1014.5,310.833 1014.5,309.5 Z"/></g>
<g><path style="opacity:1" fill="#7ea9b6" d="M 234.5,312.5 C 231.155,314.217 227.489,314.884 223.5,314.5C 226.974,313.475 230.64,312.808 234.5,312.5 Z"/></g>
<g><path style="opacity:1" fill="#334447" d="M 371.5,300.5 C 370.991,311.286 371.657,321.952 373.5,332.5C 372.542,332.047 371.708,331.381 371,330.5C 370.175,320.325 370.342,310.325 371.5,300.5 Z"/></g>
<g><path style="opacity:1" fill="#868f99" d="M 185.5,311.5 C 183.167,311.5 180.833,311.5 178.5,311.5C 178.5,314.833 178.5,318.167 178.5,321.5C 177.497,318.616 177.164,314.949 177.5,310.5C 180.385,310.194 183.052,310.527 185.5,311.5 Z"/></g>
<g><path style="opacity:1" fill="#29242b" d="M 988.5,323.5 C 989.283,325.076 990.45,326.409 992,327.5C 992.483,328.448 992.649,329.448 992.5,330.5C 991.167,330.5 989.833,330.5 988.5,330.5C 988.5,328.167 988.5,325.833 988.5,323.5 Z"/></g>
<g><path style="opacity:1" fill="#230310" d="M 954.5,323.5 C 955.404,324.209 955.737,325.209 955.5,326.5C 958.598,326.413 958.932,326.913 956.5,328C 958.956,330.159 958.29,330.992 954.5,330.5C 954.5,328.167 954.5,325.833 954.5,323.5 Z"/></g>
<g><path style="opacity:1" fill="#230310" d="M 975.5,323.5 C 976.404,324.209 976.737,325.209 976.5,326.5C 979.598,326.413 979.932,326.913 977.5,328C 979.956,330.159 979.29,330.992 975.5,330.5C 975.5,328.167 975.5,325.833 975.5,323.5 Z"/></g>
<g><path style="opacity:1" fill="#2a1425" d="M 885.5,326.5 C 888.598,326.413 888.932,326.913 886.5,328C 889.051,329.516 888.718,330.349 885.5,330.5C 885.5,329.167 885.5,327.833 885.5,326.5 Z"/></g>
<g><path style="opacity:1" fill="#19111f" d="M 889.5,327.5 C 890.386,326.224 891.386,326.224 892.5,327.5C 891.359,328.425 891.359,329.259 892.5,330C 891.5,330.667 890.5,330.667 889.5,330C 890.774,329.023 890.774,328.189 889.5,327.5 Z"/></g>
<g><path style="opacity:1" fill="#1b0c18" d="M 894.5,326.5 C 897.718,326.651 898.051,327.484 895.5,329C 897.932,330.087 897.598,330.587 894.5,330.5C 894.5,329.167 894.5,327.833 894.5,326.5 Z"/></g>
<g><path style="opacity:1" fill="#211419" d="M 945.5,326.5 C 948.718,326.651 949.051,327.484 946.5,329C 948.932,330.087 948.598,330.587 945.5,330.5C 945.5,329.167 945.5,327.833 945.5,326.5 Z"/></g>
<g><path style="opacity:1" fill="#211419" d="M 964.5,326.5 C 967.718,326.651 968.051,327.484 965.5,329C 967.932,330.087 967.598,330.587 964.5,330.5C 964.5,329.167 964.5,327.833 964.5,326.5 Z"/></g>
<g><path style="opacity:1" fill="#19101e" d="M 994.5,326.5 C 995.5,326.5 996.5,326.5 997.5,326.5C 997.33,327.822 997.663,328.989 998.5,330C 997.207,330.49 995.873,330.657 994.5,330.5C 994.5,329.167 994.5,327.833 994.5,326.5 Z"/></g>
<g><path style="opacity:1" fill="#19111f" d="M 1009.5,327.5 C 1010.39,326.224 1011.39,326.224 1012.5,327.5C 1011.36,328.425 1011.36,329.259 1012.5,330C 1011.5,330.667 1010.5,330.667 1009.5,330C 1010.77,329.023 1010.77,328.189 1009.5,327.5 Z"/></g>
<g><path style="opacity:1" fill="#4a312e" d="M 906.5,324.5 C 908.39,325.18 910.39,325.347 912.5,325C 910.906,326.8 909.239,328.633 907.5,330.5C 906.534,328.604 906.201,326.604 906.5,324.5 Z"/></g>
<g><path style="opacity:1" fill="#5a484d" d="M 913.5,326.5 C 916.5,326.167 917.833,327.5 917.5,330.5C 916.167,330.5 914.833,330.5 913.5,330.5C 913.5,329.167 913.5,327.833 913.5,326.5 Z"/></g>
<g><path style="opacity:1" fill="#5a484d" d="M 922.5,326.5 C 925.5,326.167 926.833,327.5 926.5,330.5C 925.167,330.5 923.833,330.5 922.5,330.5C 922.5,329.167 922.5,327.833 922.5,326.5 Z"/></g>
<g><path style="opacity:1" fill="#5a484d" d="M 932.5,326.5 C 935.5,326.167 936.833,327.5 936.5,330.5C 935.167,330.5 933.833,330.5 932.5,330.5C 932.5,329.167 932.5,327.833 932.5,326.5 Z"/></g>
<g><path style="opacity:1" fill="#1a1011" d="M 937.5,327.5 C 939.718,327.422 942.052,327.256 944.5,327C 943,328.167 941.5,329.333 940,330.5C 939.623,329.058 938.79,328.058 937.5,327.5 Z"/></g>
<g><path style="opacity:1" fill="#25020e" d="M 981.5,326.5 C 982.249,327.531 982.915,328.698 983.5,330C 983.167,330.167 982.833,330.333 982.5,330.5C 981.571,329.311 981.238,327.978 981.5,326.5 Z"/></g>
<g><path style="opacity:1" fill="#5a484d" d="M 1014.5,326.5 C 1017.5,326.167 1018.83,327.5 1018.5,330.5C 1017.17,330.5 1015.83,330.5 1014.5,330.5C 1014.5,329.167 1014.5,327.833 1014.5,326.5 Z"/></g>
<g><path style="opacity:1" fill="#3b3146" d="M 928.5,326.5 C 931.742,326.467 932.075,327.8 929.5,330.5C 928.571,329.311 928.238,327.978 928.5,326.5 Z"/></g>
<g><path style="opacity:1" fill="#3b3146" d="M 960.5,326.5 C 963.742,326.467 964.075,327.8 961.5,330.5C 960.571,329.311 960.238,327.978 960.5,326.5 Z"/></g>
<g><path style="opacity:1" fill="#3b3146" d="M 999.5,326.5 C 1002.74,326.467 1003.08,327.8 1000.5,330.5C 999.571,329.311 999.238,327.978 999.5,326.5 Z"/></g>
<g><path style="opacity:1" fill="#3a3137" d="M 874.5,326.5 C 877.272,327.235 879.939,327.401 882.5,327C 883.337,328.011 883.67,329.178 883.5,330.5C 880.5,330.5 877.5,330.5 874.5,330.5C 874.5,329.167 874.5,327.833 874.5,326.5 Z"/></g>
<g><path style="opacity:1" fill="#1b1117" d="M 971.5,323.5 C 972.817,325.287 972.484,326.954 970.5,328.5C 974.374,330.002 974.041,330.669 969.5,330.5C 969.884,328.071 970.551,325.737 971.5,323.5 Z"/></g>
<g><path style="opacity:1" fill="#1b1117" d="M 1005.5,323.5 C 1006.82,325.287 1006.48,326.954 1004.5,328.5C 1008.37,330.002 1008.04,330.669 1003.5,330.5C 1003.88,328.071 1004.55,325.737 1005.5,323.5 Z"/></g>
<g><path style="opacity:1" fill="#29242b" d="M 883.5,340.5 C 884.283,342.076 885.45,343.409 887,344.5C 887.483,345.448 887.649,346.448 887.5,347.5C 886.167,347.5 884.833,347.5 883.5,347.5C 883.5,345.167 883.5,342.833 883.5,340.5 Z"/></g>
<g><path style="opacity:1" fill="#230310" d="M 976.5,340.5 C 977.404,341.209 977.737,342.209 977.5,343.5C 980.598,343.413 980.932,343.913 978.5,345C 980.956,347.159 980.29,347.992 976.5,347.5C 976.5,345.167 976.5,342.833 976.5,340.5 Z"/></g>
<g><path style="opacity:1" fill="#230310" d="M 997.5,340.5 C 998.404,341.209 998.737,342.209 998.5,343.5C 1001.6,343.413 1001.93,343.913 999.5,345C 1001.96,347.159 1001.29,347.992 997.5,347.5C 997.5,345.167 997.5,342.833 997.5,340.5 Z"/></g>
<g><path style="opacity:1" fill="#230310" d="M 1013.5,340.5 C 1014.4,341.209 1014.74,342.209 1014.5,343.5C 1017.6,343.413 1017.93,343.913 1015.5,345C 1017.96,347.159 1017.29,347.992 1013.5,347.5C 1013.5,345.167 1013.5,342.833 1013.5,340.5 Z"/></g>
<g><path style="opacity:1" fill="#1d111d" d="M 889.5,343.5 C 890.158,344.398 890.824,345.398 891.5,346.5C 892.386,345.675 892.719,344.675 892.5,343.5C 893.5,343.5 894.5,343.5 895.5,343.5C 895.997,345.597 896.33,347.43 896.5,349C 894.385,348.145 892.052,347.645 889.5,347.5C 889.5,346.167 889.5,344.833 889.5,343.5 Z"/></g>
<g><path style="opacity:1" fill="#211419" d="M 916.5,343.5 C 919.718,343.651 920.051,344.484 917.5,346C 919.932,347.087 919.598,347.587 916.5,347.5C 916.5,346.167 916.5,344.833 916.5,343.5 Z"/></g>
<g><path style="opacity:1" fill="#211419" d="M 967.5,343.5 C 970.718,343.651 971.051,344.484 968.5,346C 970.932,347.087 970.598,347.587 967.5,347.5C 967.5,346.167 967.5,344.833 967.5,343.5 Z"/></g>
<g><path style="opacity:1" fill="#211419" d="M 986.5,343.5 C 989.718,343.651 990.051,344.484 987.5,346C 989.932,347.087 989.598,347.587 986.5,347.5C 986.5,346.167 986.5,344.833 986.5,343.5 Z"/></g>
<g><path style="opacity:1" fill="#211419" d="M 1022.5,343.5 C 1025.72,343.651 1026.05,344.484 1023.5,346C 1025.93,347.087 1025.6,347.587 1022.5,347.5C 1022.5,346.167 1022.5,344.833 1022.5,343.5 Z"/></g>
<g><path style="opacity:1" fill="#190100" d="M 1032.5,344.5 C 1033.95,343.387 1035.61,343.22 1037.5,344C 1035.7,345.036 1034.03,345.203 1032.5,344.5 Z"/></g>
<g><path style="opacity:1" fill="#4a312e" d="M 928.5,341.5 C 930.39,342.18 932.39,342.347 934.5,342C 932.906,343.8 931.239,345.633 929.5,347.5C 928.534,345.604 928.201,343.604 928.5,341.5 Z"/></g>
<g><path style="opacity:1" fill="#5a484d" d="M 935.5,343.5 C 938.5,343.167 939.833,344.5 939.5,347.5C 938.167,347.5 936.833,347.5 935.5,347.5C 935.5,346.167 935.5,344.833 935.5,343.5 Z"/></g>
<g><path style="opacity:1" fill="#5a484d" d="M 944.5,343.5 C 947.5,343.167 948.833,344.5 948.5,347.5C 947.167,347.5 945.833,347.5 944.5,347.5C 944.5,346.167 944.5,344.833 944.5,343.5 Z"/></g>
<g><path style="opacity:1" fill="#5a484d" d="M 954.5,343.5 C 957.5,343.167 958.833,344.5 958.5,347.5C 957.167,347.5 955.833,347.5 954.5,347.5C 954.5,346.167 954.5,344.833 954.5,343.5 Z"/></g>
<g><path style="opacity:1" fill="#1a1011" d="M 959.5,344.5 C 961.718,344.422 964.052,344.256 966.5,344C 965,345.167 963.5,346.333 962,347.5C 961.623,346.058 960.79,345.058 959.5,344.5 Z"/></g>
<g><path style="opacity:1" fill="#25020e" d="M 1003.5,343.5 C 1004.25,344.531 1004.92,345.698 1005.5,347C 1005.17,347.167 1004.83,347.333 1004.5,347.5C 1003.57,346.311 1003.24,344.978 1003.5,343.5 Z"/></g>
<g><path style="opacity:1" fill="#25020e" d="M 1019.5,343.5 C 1020.25,344.531 1020.92,345.698 1021.5,347C 1021.17,347.167 1020.83,347.333 1020.5,347.5C 1019.57,346.311 1019.24,344.978 1019.5,343.5 Z"/></g>
<g><path style="opacity:1" fill="#3b3146" d="M 950.5,343.5 C 953.742,343.467 954.075,344.8 951.5,347.5C 950.571,346.311 950.238,344.978 950.5,343.5 Z"/></g>
<g><path style="opacity:1" fill="#3b3146" d="M 982.5,343.5 C 985.742,343.467 986.075,344.8 983.5,347.5C 982.571,346.311 982.238,344.978 982.5,343.5 Z"/></g>
<g><path style="opacity:1" fill="#262230" d="M 877.5,343.5 C 878.833,343.5 880.167,343.5 881.5,343.5C 881.5,344.833 881.5,346.167 881.5,347.5C 880.167,347.5 878.833,347.5 877.5,347.5C 877.5,346.167 877.5,344.833 877.5,343.5 Z"/></g>
<g><path style="opacity:1" fill="#271e24" d="M 901.5,343.5 C 905.167,343.5 908.833,343.5 912.5,343.5C 912.693,347.449 913.193,347.449 914,343.5C 914.309,344.766 914.809,345.933 915.5,347C 910.845,347.499 906.179,347.666 901.5,347.5C 901.5,346.167 901.5,344.833 901.5,343.5 Z"/></g>
<g><path style="opacity:1" fill="#9c7d7e" d="M 902.5,344.5 C 903.978,344.238 905.311,344.571 906.5,345.5C 905.833,345.833 905.167,346.167 904.5,346.5C 903.287,346.253 902.62,345.586 902.5,344.5 Z"/></g>
<g><path style="opacity:1" fill="#1b1117" d="M 993.5,340.5 C 994.817,342.287 994.484,343.954 992.5,345.5C 996.374,347.002 996.041,347.669 991.5,347.5C 991.884,345.071 992.551,342.737 993.5,340.5 Z"/></g>
<g><path style="opacity:1" fill="#1b1117" d="M 1029.5,340.5 C 1030.82,342.287 1030.48,343.954 1028.5,345.5C 1032.37,347.002 1032.04,347.669 1027.5,347.5C 1027.88,345.071 1028.55,342.737 1029.5,340.5 Z"/></g>
<g><path style="opacity:1" fill="#230310" d="M 1010.5,357.5 C 1011.4,358.209 1011.74,359.209 1011.5,360.5C 1014.6,360.413 1014.93,360.913 1012.5,362C 1014.96,364.159 1014.29,364.992 1010.5,364.5C 1010.5,362.167 1010.5,359.833 1010.5,357.5 Z"/></g>
<g><path style="opacity:1" fill="#0e0000" d="M 1006.5,359.5 C 1007.29,359.783 1007.96,360.283 1008.5,361C 1007.89,362.303 1007.55,363.47 1007.5,364.5C 1006.55,362.955 1006.21,361.288 1006.5,359.5 Z"/></g>
<g><path style="opacity:1" fill="#0e0000" d="M 1026.5,359.5 C 1027.29,359.783 1027.96,360.283 1028.5,361C 1027.89,362.303 1027.55,363.47 1027.5,364.5C 1026.55,362.955 1026.21,361.288 1026.5,359.5 Z"/></g>
<g><path style="opacity:1" fill="#211419" d="M 877.5,360.5 C 880.718,360.651 881.051,361.484 878.5,363C 880.932,364.087 880.598,364.587 877.5,364.5C 877.5,363.167 877.5,361.833 877.5,360.5 Z"/></g>
<g><path style="opacity:1" fill="#2a1425" d="M 914.5,360.5 C 917.598,360.413 917.932,360.913 915.5,362C 918.051,363.516 917.718,364.349 914.5,364.5C 914.5,363.167 914.5,361.833 914.5,360.5 Z"/></g>
<g><path style="opacity:1" fill="#19111f" d="M 918.5,361.5 C 919.386,360.224 920.386,360.224 921.5,361.5C 920.359,362.425 920.359,363.259 921.5,364C 920.5,364.667 919.5,364.667 918.5,364C 919.774,363.023 919.774,362.189 918.5,361.5 Z"/></g>
<g><path style="opacity:1" fill="#1b0c18" d="M 923.5,360.5 C 926.718,360.651 927.051,361.484 924.5,363C 926.932,364.087 926.598,364.587 923.5,364.5C 923.5,363.167 923.5,361.833 923.5,360.5 Z"/></g>
<g><path style="opacity:1" fill="#361d3b" d="M 935.5,359.5 C 935.897,358.475 936.563,358.308 937.5,359C 939.019,360.351 940.352,361.851 941.5,363.5C 941.167,363.833 940.833,364.167 940.5,364.5C 938.994,362.599 937.327,360.932 935.5,359.5 Z"/></g>
<g><path style="opacity:1" fill="#19101e" d="M 943.5,360.5 C 944.5,360.5 945.5,360.5 946.5,360.5C 946.33,361.822 946.663,362.989 947.5,364C 946.207,364.49 944.873,364.657 943.5,364.5C 943.5,363.167 943.5,361.833 943.5,360.5 Z"/></g>
<g><path style="opacity:1" fill="#1b131b" d="M 948.5,360.5 C 951.993,360.998 955.326,360.998 958.5,360.5C 958.33,361.822 958.663,362.989 959.5,364C 955.848,364.499 952.182,364.665 948.5,364.5C 948.5,363.167 948.5,361.833 948.5,360.5 Z"/></g>
<g><path style="opacity:1" fill="#191124" d="M 972.5,360.5 C 973.5,360.5 974.5,360.5 975.5,360.5C 976.768,362.905 976.768,364.905 975.5,366.5C 973.423,365.012 972.423,363.012 972.5,360.5 Z"/></g>
<g><path style="opacity:1" fill="#2a1425" d="M 988.5,360.5 C 991.598,360.413 991.932,360.913 989.5,362C 992.051,363.516 991.718,364.349 988.5,364.5C 988.5,363.167 988.5,361.833 988.5,360.5 Z"/></g>
<g><path style="opacity:1" fill="#19111f" d="M 992.5,361.5 C 993.386,360.224 994.386,360.224 995.5,361.5C 994.359,362.425 994.359,363.259 995.5,364C 994.5,364.667 993.5,364.667 992.5,364C 993.774,363.023 993.774,362.189 992.5,361.5 Z"/></g>
<g><path style="opacity:1" fill="#190100" d="M 996.5,361.5 C 997.946,360.387 999.613,360.22 1001.5,361C 999.701,362.036 998.034,362.203 996.5,361.5 Z"/></g>
<g><path style="opacity:1" fill="#2a1425" d="M 1002.5,360.5 C 1005.6,360.413 1005.93,360.913 1003.5,362C 1006.05,363.516 1005.72,364.349 1002.5,364.5C 1002.5,363.167 1002.5,361.833 1002.5,360.5 Z"/></g>
<g><path style="opacity:1" fill="#391e20" d="M 886.5,360.5 C 889.5,360.167 890.833,361.5 890.5,364.5C 889.325,364.281 888.325,364.614 887.5,365.5C 888.506,366.396 888.506,367.062 887.5,367.5C 886.526,365.257 886.192,362.924 886.5,360.5 Z"/></g>
<g><path style="opacity:1" fill="#5a484d" d="M 892.5,360.5 C 895.5,360.167 896.833,361.5 896.5,364.5C 895.167,364.5 893.833,364.5 892.5,364.5C 892.5,363.167 892.5,361.833 892.5,360.5 Z"/></g>
<g><path style="opacity:1" fill="#391e20" d="M 898.5,360.5 C 901.5,360.167 902.833,361.5 902.5,364.5C 901.325,364.281 900.325,364.614 899.5,365.5C 900.506,366.396 900.506,367.062 899.5,367.5C 898.526,365.257 898.192,362.924 898.5,360.5 Z"/></g>
<g><path style="opacity:1" fill="#5a484d" d="M 908.5,360.5 C 911.5,360.167 912.833,361.5 912.5,364.5C 911.167,364.5 909.833,364.5 908.5,364.5C 908.5,363.167 908.5,361.833 908.5,360.5 Z"/></g>
<g><path style="opacity:1" fill="#9c7d7e" d="M 949.5,361.5 C 950.978,361.238 952.311,361.571 953.5,362.5C 952.833,362.833 952.167,363.167 951.5,363.5C 950.287,363.253 949.62,362.586 949.5,361.5 Z"/></g>
<g><path style="opacity:1" fill="#1a1011" d="M 980.5,361.5 C 982.718,361.422 985.052,361.256 987.5,361C 986,362.167 984.5,363.333 983,364.5C 982.623,363.058 981.79,362.058 980.5,361.5 Z"/></g>
<g><path style="opacity:1" fill="#5a484d" d="M 1016.5,360.5 C 1019.5,360.167 1020.83,361.5 1020.5,364.5C 1019.17,364.5 1017.83,364.5 1016.5,364.5C 1016.5,363.167 1016.5,361.833 1016.5,360.5 Z"/></g>
<g><path style="opacity:1" fill="#5a484d" d="M 1030.5,360.5 C 1033.5,360.167 1034.83,361.5 1034.5,364.5C 1033.17,364.5 1031.83,364.5 1030.5,364.5C 1030.5,363.167 1030.5,361.833 1030.5,360.5 Z"/></g>
<g><path style="opacity:1" fill="#3b3146" d="M 904.5,360.5 C 907.742,360.467 908.075,361.8 905.5,364.5C 904.571,363.311 904.238,361.978 904.5,360.5 Z"/></g>
<g><path style="opacity:1" fill="#262230" d="M 963.5,360.5 C 964.833,360.5 966.167,360.5 967.5,360.5C 967.5,361.833 967.5,363.167 967.5,364.5C 966.167,364.5 964.833,364.5 963.5,364.5C 963.5,363.167 963.5,361.833 963.5,360.5 Z"/></g>
<g><path style="opacity:1" fill="#1b0c18" d="M 905.5,377.5 C 908.718,377.651 909.051,378.484 906.5,380C 908.932,381.087 908.598,381.587 905.5,381.5C 905.5,380.167 905.5,378.833 905.5,377.5 Z"/></g>
<g><path style="opacity:1" fill="#16061f" d="M 874.5,377.5 C 877.797,377.329 878.131,377.995 875.5,379.5C 878.131,381.005 877.797,381.671 874.5,381.5C 874.5,380.167 874.5,378.833 874.5,377.5 Z"/></g>
<g><path style="opacity:1" fill="#5a484d" d="M 879.5,377.5 C 882.5,377.167 883.833,378.5 883.5,381.5C 882.167,381.5 880.833,381.5 879.5,381.5C 879.5,380.167 879.5,378.833 879.5,377.5 Z"/></g>
<g><path style="opacity:1" fill="#16061f" d="M 889.5,377.5 C 892.797,377.329 893.131,377.995 890.5,379.5C 893.131,381.005 892.797,381.671 889.5,381.5C 889.5,380.167 889.5,378.833 889.5,377.5 Z"/></g>
<g><path style="opacity:1" fill="#16061f" d="M 900.5,377.5 C 903.797,377.329 904.131,377.995 901.5,379.5C 904.131,381.005 903.797,381.671 900.5,381.5C 900.5,380.167 900.5,378.833 900.5,377.5 Z"/></g>
<g><path style="opacity:1" fill="#2c1e2b" d="M 894.5,374.5 C 895.404,375.209 895.737,376.209 895.5,377.5C 896.5,377.5 897.5,377.5 898.5,377.5C 898.5,378.833 898.5,380.167 898.5,381.5C 897.167,381.5 895.833,381.5 894.5,381.5C 894.5,379.167 894.5,376.833 894.5,374.5 Z"/></g>
<g><path style="opacity:1" fill="#99d7e8" d="M 637.5,454.5 C 638.5,454.5 639.5,454.5 640.5,454.5C 639.989,463.968 640.822,473.301 643,482.5C 646.531,489.691 652.365,493.525 660.5,494C 677.658,493.641 694.658,494.975 711.5,498C 725.264,505.097 734.764,515.931 740,530.5C 740.667,537.5 740.667,544.5 740,551.5C 736.917,556.588 733.083,561.088 728.5,565C 718.698,569.702 708.365,572.702 697.5,574C 672.432,573.922 647.432,575.088 622.5,577.5C 603.668,573.968 585.001,569.468 566.5,564C 562.069,562.371 558.236,559.871 555,556.5C 553.48,552.625 553.146,548.625 554,544.5C 557.334,529.164 562.334,514.164 569,499.5C 570,498.833 571,498.167 572,497.5C 572.612,489.829 573.278,482.162 574,474.5C 581.669,472.044 589.169,469.211 596.5,466C 610.568,463.25 624.235,459.417 637.5,454.5 Z"/></g>
<g><path style="opacity:1" fill="#98d6e7" d="M 256.5,492.5 C 261.179,492.334 265.845,492.501 270.5,493C 273.047,493.067 275.214,493.901 277,495.5C 277.758,493.09 279.425,492.09 282,492.5C 286.279,493.038 290.279,494.371 294,496.5C 296.456,494.679 299.289,494.012 302.5,494.5C 302.334,501.508 302.5,508.508 303,515.5C 305.542,525.039 311.708,530.872 321.5,533C 333.299,533.237 344.966,534.57 356.5,537C 368.971,543.113 373.471,552.946 370,566.5C 363.808,579.359 354.308,588.859 341.5,595C 335.957,596.051 330.624,597.718 325.5,600C 298.669,601.529 272.003,600.196 245.5,596C 229.661,593.148 223.827,583.981 228,568.5C 231.223,559.506 235.223,550.839 240,542.5C 241.527,534.773 244.527,527.773 249,521.5C 249.224,513.457 249.891,505.457 251,497.5C 252.634,495.503 254.468,493.836 256.5,492.5 Z"/></g>
<g><path style="opacity:1" fill="#5e5e5e" d="M 379.5,552.5 C 380.648,556.981 380.815,561.648 380,566.5C 379.13,565.892 378.63,565.059 378.5,564C 379.394,560.224 379.728,556.39 379.5,552.5 Z"/></g>
</svg>
